<?xml version="1.0" encoding="UTF-8"?><!DOCTYPE svg PUBLIC "-//W3C//DTD SVG 1.1//EN" "http://www.w3.org/Graphics/SVG/1.1/DTD/svg11.dtd"><svg width="416" height="416" viewBox="0 0 416 416" xmlns="http://www.w3.org/2000/svg" xmlns:xlink="http://www.w3.org/1999/xlink"><svg width="26" height="26" viewBox="-1 -1 26 26" id="account" x="26" xmlns="http://www.w3.org/2000/svg"><path d="M11.5 14c4.14 0 7.5 1.57 7.5 3.5V20H4v-2.5c0-1.93 3.36-3.5 7.5-3.5m6.5 3.5c0-1.38-2.91-2.5-6.5-2.5S5 16.12 5 17.5V19h13v-1.5M11.5 5C13.43 5 15 6.57 15 8.5S13.43 12 11.5 12 8 10.43 8 8.5 9.57 5 11.5 5m0 1a2.5 2.5 0 0 0 0 5 2.5 2.5 0 0 0 0-5z"/></svg><svg width="26" height="26" viewBox="-1 -1 26 26" id="alarm" x="286" y="156" xmlns="http://www.w3.org/2000/svg"><path d="M11.5 6c4.14 0 7.5 3.36 7.5 7.5 0 4.14-3.36 7.5-7.5 7.5C7.36 21 4 17.64 4 13.5 4 9.36 7.36 6 11.5 6m0 1a6.5 6.5 0 1 0 0 13 6.5 6.5 0 0 0 0-13M11 9h1v4.36l3.05 1.42-.42.91L11 14V9m4.25-3.75l.64-.75 3.83 3.2-.64.76-3.83-3.21m-7.5 0L3.92 8.46l-.64-.76 3.83-3.2.64.75z"/></svg><svg width="26" height="26" viewBox="-1 -1 26 26" id="alarm-plus" y="26" xmlns="http://www.w3.org/2000/svg"><path d="M11.5 6c4.14 0 7.5 3.36 7.5 7.5 0 4.14-3.36 7.5-7.5 7.5C7.36 21 4 17.64 4 13.5 4 9.36 7.36 6 11.5 6m0 1a6.5 6.5 0 1 0 0 13 6.5 6.5 0 0 0 0-13m3.75-1.75l.64-.75 3.83 3.2-.64.76-3.83-3.21m-7.5 0L3.92 8.46l-.64-.76 3.83-3.2.64.75M11 11h1v2h2v1h-2v2h-1v-2H9v-1h2v-2z"/></svg><svg width="26" height="26" viewBox="-1 -1 26 26" id="alert" x="26" y="26" xmlns="http://www.w3.org/2000/svg"><path d="M1 21L11.5 2.81 22 21H1m19.27-1L11.5 4.81 2.73 20h17.54M11 14v-4h1v4h-1m0 2h1v2h-1v-2z"/></svg><svg width="26" height="26" viewBox="-1 -1 26 26" id="alert-circle" x="52" xmlns="http://www.w3.org/2000/svg"><path d="M11.5 3c5.25 0 9.5 4.25 9.5 9.5S16.75 22 11.5 22 2 17.75 2 12.5 6.25 3 11.5 3m0 1C6.81 4 3 7.81 3 12.5c0 4.69 3.81 8.5 8.5 8.5 4.69 0 8.5-3.81 8.5-8.5C20 7.81 16.19 4 11.5 4M11 17v-2h1v2h-1m0-4V8h1v5h-1z"/></svg><svg width="26" height="26" viewBox="-1 -1 26 26" id="alert-octagon" x="52" y="26" xmlns="http://www.w3.org/2000/svg"><path d="M3 16V9l5-5h7l5 5v7.03L15.03 21H8l-5-5M8.39 5L4 9.39v6.21L8.4 20h6.21L19 15.61V9.39L14.61 5H8.39M11 8h1v5h-1V8m0 7h1v2h-1v-2z"/></svg><svg width="26" height="26" viewBox="-1 -1 26 26" id="arrange-bring-forward" y="52" xmlns="http://www.w3.org/2000/svg"><path d="M8 9h4v1H9.71l6.71 6.72-.7.7L9 10.71V13H8V9M3 4h12v9l-1-1V5H4v10h7l1 1H3V4m17 5v12H8v-3h1v2h10V10h-2V9h3z"/></svg><svg width="26" height="26" viewBox="-1 -1 26 26" id="arrange-bring-to-front" x="26" y="52" xmlns="http://www.w3.org/2000/svg"><path d="M9 7V5H4v5h2v1H3V4h7v3H9m4 14v-3h1v2h5v-5h-2v-1h3v7h-7M8 9h7v7H8V9m1 1v5h5v-5H9z"/></svg><svg width="26" height="26" viewBox="-1 -1 26 26" id="arrange-send-backward" x="52" y="52" xmlns="http://www.w3.org/2000/svg"><path d="M6 7h4v1H7.71l6.71 6.72-.7.7L7 8.71V11H6V7m14 14H8v-9l1 1v7h10V10h-7l-1-1h9v12M3 16V4h12v3h-1V5H4v10h2v1H3z"/></svg><svg width="26" height="26" viewBox="-1 -1 26 26" id="arrange-send-to-back" x="78" xmlns="http://www.w3.org/2000/svg"><path d="M9 5H4v5h5V5m1 6H3V4h7v7m3 10v-7h7v7h-7m1-1h5v-5h-5v5m2-12v4h-1V9h-3V8h4m-9 9v-4h1v3h3v1H7z"/></svg><svg width="26" height="26" viewBox="-1 -1 26 26" id="arrow-down" x="78" y="26" xmlns="http://www.w3.org/2000/svg"><path d="M12 5v12.25L17.25 12l.75.66-6.5 6.5-6.5-6.5.75-.66L11 17.25V5h1z"/></svg><svg width="26" height="26" viewBox="-1 -1 26 26" id="arrow-down-circle" x="78" y="52" xmlns="http://www.w3.org/2000/svg"><path d="M12 7v8.25L15.25 12l.75.66-4.5 4.5-4.5-4.5.75-.66L11 15.25V7h1m-.5 15C6.26 22 2 17.75 2 12.5S6.25 3 11.5 3 21 7.25 21 12.5 16.75 22 11.5 22m0-1a8.5 8.5 0 1 0 0-17C6.81 4 3 7.81 3 12.5c0 4.69 3.81 8.5 8.5 8.5z"/></svg><svg width="26" height="26" viewBox="-1 -1 26 26" id="arrow-left" y="78" xmlns="http://www.w3.org/2000/svg"><path d="M19 13H6.75L12 18.25l-.66.75-6.5-6.5 6.5-6.5.66.75L6.75 12H19v1z"/></svg><svg width="26" height="26" viewBox="-1 -1 26 26" id="arrow-left-circle" x="26" y="78" xmlns="http://www.w3.org/2000/svg"><path d="M17 13H8.75L12 16.25l-.66.75-4.5-4.5 4.5-4.5.66.75L8.75 12H17v1m-15-.5C2 7.25 6.25 3 11.5 3S21 7.25 21 12.5 16.75 22 11.5 22 2 17.75 2 12.5m1 0c0 4.69 3.81 8.5 8.5 8.5 4.69 0 8.5-3.81 8.5-8.5C20 7.81 16.19 4 11.5 4 6.81 4 3 7.81 3 12.5z"/></svg><svg width="26" height="26" viewBox="-1 -1 26 26" id="arrow-right" x="52" y="78" xmlns="http://www.w3.org/2000/svg"><path d="M4 12h12.25L11 6.75l.66-.75 6.5 6.5-6.5 6.5-.66-.75L16.25 13H4v-1z"/></svg><svg width="26" height="26" viewBox="-1 -1 26 26" id="arrow-right-circle" x="78" y="78" xmlns="http://www.w3.org/2000/svg"><path d="M6 12h8.25L11 8.75l.67-.75 4.5 4.5-4.5 4.5-.67-.75L14.25 13H6v-1m15 .5c0 5.25-4.25 9.5-9.5 9.5C6.26 22 2 17.75 2 12.5S6.25 3 11.5 3 21 7.25 21 12.5m-1 0C20 7.81 16.19 4 11.5 4 6.81 4 3 7.81 3 12.5a8.5 8.5 0 1 0 17 0z"/></svg><svg width="26" height="26" viewBox="-1 -1 26 26" id="arrow-up" x="104" xmlns="http://www.w3.org/2000/svg"><path d="M11 20V7.75L5.75 13 5 12.34l6.5-6.5 6.5 6.5-.75.66L12 7.75V20h-1z"/></svg><svg width="26" height="26" viewBox="-1 -1 26 26" id="arrow-up-circle" x="104" y="26" xmlns="http://www.w3.org/2000/svg"><path d="M11 18V9.75L7.75 13 7 12.34l4.5-4.5 4.5 4.5-.75.66L12 9.75V18h-1m.5-15c5.25 0 9.5 4.25 9.5 9.5S16.75 22 11.5 22 2 17.75 2 12.5 6.25 3 11.5 3m0 1C6.81 4 3 7.81 3 12.5c0 4.69 3.81 8.5 8.5 8.5 4.69 0 8.5-3.81 8.5-8.5C20 7.81 16.19 4 11.5 4z"/></svg><svg width="26" height="26" viewBox="-1 -1 26 26" id="bank" x="104" y="52" xmlns="http://www.w3.org/2000/svg"><path d="M11 2.5L20 7v2H2V7l9-4.5m4 7.5h4v8h-4v-8M2 22v-3h18v3H2m7-12h4v8H9v-8m-6 0h4v8H3v-8m0 10v1h16v-1H3m1-9v6h2v-6H4m6 0v6h2v-6h-2m6 0v6h2v-6h-2M3 8h16v-.4l-8-4.02L3 7.6V8z"/></svg><svg width="26" height="26" viewBox="-1 -1 26 26" id="bell" x="104" y="78" xmlns="http://www.w3.org/2000/svg"><path d="M12 4.5c0-.28-.22-.5-.5-.5s-.5.22-.5.5v1.53c-2.25.25-4 2.15-4 4.47v5.91L5.41 18h12.18L16 16.41V10.5c0-2.32-1.75-4.22-4-4.47V4.5M11.5 3c.83 0 1.5.67 1.5 1.5v.71c2.31.65 4 2.79 4 5.29V16l3 3H3l3-3v-5.5C6 8 7.69 5.86 10 5.21V4.5c0-.83.67-1.5 1.5-1.5m0 19a2.5 2.5 0 0 1-2.45-2h1.04a1.495 1.495 0 0 0 2.82 0h1.04a2.5 2.5 0 0 1-2.45 2z"/></svg><svg width="26" height="26" viewBox="-1 -1 26 26" id="bell-off" y="104" xmlns="http://www.w3.org/2000/svg"><path d="M2.79 4.46l.71-.71L20.25 20.5l-.71.71-2.2-2.21H3l3-3v-5.5c0-.83.18-1.62.5-2.32L2.79 4.46M12 4.5c0-.28-.22-.5-.5-.5s-.5.22-.5.5v1.53c-1 .11-1.91.55-2.6 1.21l-.71-.71c.64-.61 1.43-1.07 2.31-1.32V4.5c0-.83.67-1.5 1.5-1.5s1.5.67 1.5 1.5v.71c2.31.65 4 2.79 4 5.29v5.34l-1-1V10.5c0-2.32-1.75-4.22-4-4.47V4.5m-5 6v5.91L5.41 18h10.93L7.28 8.94C7.1 9.43 7 9.95 7 10.5M11.5 22a2.5 2.5 0 0 1-2.45-2h1.04a1.495 1.495 0 0 0 2.82 0h1.04a2.5 2.5 0 0 1-2.45 2z"/></svg><svg width="26" height="26" viewBox="-1 -1 26 26" id="bluetooth" x="26" y="104" xmlns="http://www.w3.org/2000/svg"><path d="M11 3h1l4.85 4.85-4.64 4.65 4.64 4.65L12 22h-1v-8.29l-4.45 4.45-.71-.71 4.95-4.95-4.95-4.95.71-.71L11 11.29V3m1 1.41v6.88l3.44-3.44L12 4.41m0 16.18l3.44-3.44L12 13.71v6.88z"/></svg><svg width="26" height="26" viewBox="-1 -1 26 26" id="book" x="52" y="104" xmlns="http://www.w3.org/2000/svg"><path d="M7 3h9c1.66 0 3 1.34 3 3v13c0 1.66-1.34 3-3 3H7c-1.66 0-3-1.34-3-3V6c0-1.66 1.34-3 3-3m0 1c-1.1 0-2 .9-2 2v13c0 1.1.9 2 2 2h9c1.1 0 2-.9 2-2V6c0-1.1-.9-2-2-2h-3v6.7l-3-2.1-3 2.1V4m5 0H8v4.78l2-1.4 2 1.4V4z"/></svg><svg width="26" height="26" viewBox="-1 -1 26 26" id="book-multiple" x="78" y="104" xmlns="http://www.w3.org/2000/svg"><path d="M8 3h9c1.66 0 3 1.34 3 3v13c0 1.66-1.34 3-3 3H8c-1.66 0-3-1.34-3-3V6c0-1.66 1.34-3 3-3m0 1c-1.1 0-2 .9-2 2v13c0 1.1.9 2 2 2h9c1.1 0 2-.9 2-2V6c0-1.1-.9-2-2-2h-3v6.7l-3-2.1-3 2.1V4m5 0H9v4.78l2-1.4 2 1.4V4M8 24c-2.76 0-5-2.24-5-5V7h1v12c0 2.21 1.79 4 4 4h8v1H8z"/></svg><svg width="26" height="26" viewBox="-1 -1 26 26" id="book-plus" x="104" y="104" xmlns="http://www.w3.org/2000/svg"><path d="M7 3h9c1.66 0 3 1.34 3 3v13c0 1.66-1.34 3-3 3H7c-1.66 0-3-1.34-3-3V6c0-1.66 1.34-3 3-3m0 1c-1.1 0-2 .9-2 2v13c0 1.1.9 2 2 2h9c1.1 0 2-.9 2-2V6c0-1.1-.9-2-2-2h-3v6.7l-3-2.1-3 2.1V4m5 0H8v4.78l2-1.4 2 1.4V4M9 19v-2H7v-1h2v-2h1v2h2v1h-2v2H9z"/></svg><svg width="26" height="26" viewBox="-1 -1 26 26" id="bookmark" x="130" xmlns="http://www.w3.org/2000/svg"><path d="M8 3h8c1.66 0 3 1.34 3 3v15l-7-3-7 3V6c0-1.66 1.34-3 3-3m0 1c-1.1 0-2 .9-2 2v13.5l6-2.56 6 2.56V6c0-1.1-.9-2-2-2H8z"/></svg><svg width="26" height="26" viewBox="-1 -1 26 26" id="border-all" x="130" y="26" xmlns="http://www.w3.org/2000/svg"><path d="M3 4h17v17H3V4m1 1v7h7V5H4m15 7V5h-7v7h7M4 20h7v-7H4v7m15 0v-7h-7v7h7z"/></svg><svg width="26" height="26" viewBox="-1 -1 26 26" id="border-bottom" x="130" y="52" xmlns="http://www.w3.org/2000/svg"><path d="M3 20h8v-1h1v1h8v1H3v-1m17-2h-1v-2h1v2M4 14H3v-3h1v1h1v1H4v1m0 4H3v-2h1v2m8-5h-1v-1h1v1M3 5V4h1v1H3m0 2h1v2H3V7m12-2V4h2v1h-2M6 5V4h2v1H6m4 0V4h3v1h-1v1h-1V5h-1m9 9v-1h-1v-1h1v-1h1v3h-1m1-5h-1V7h1v2m-1-4V4h1v1h-1m-5 8v-1h2v1h-2m-2 4h-1v-2h1v2m0-7h-1V8h1v2m-5 3v-1h2v1H7z"/></svg><svg width="26" height="26" viewBox="-1 -1 26 26" id="border-horizontal" x="130" y="78" xmlns="http://www.w3.org/2000/svg"><path d="M20 18h-1v-2h1v2M4 14H3v-3h1v1h15v-1h1v3h-1v-1H4v1m0 4H3v-2h1v2M3 5V4h1v1H3m0 2h1v2H3V7m12-2V4h2v1h-2M6 5V4h2v1H6m4 0V4h3v1h-1v1h-1V5h-1m10 4h-1V7h1v2m-1-4V4h1v1h-1m-7 12h-1v-2h1v2m0-7h-1V8h1v2M3 20h1v1H3v-1m12 0h2v1h-2v-1m-9 0h2v1H6v-1m4 0h1v-1h1v1h1v1h-3v-1m9 0h1v1h-1v-1z"/></svg><svg width="26" height="26" viewBox="-1 -1 26 26" id="border-inside" x="130" y="104" xmlns="http://www.w3.org/2000/svg"><path d="M17 4v1h-2V4h2m-4 16v1h-3v-1h1v-7H4v1H3v-3h1v1h7V5h-1V4h3v1h-1v7h7v-1h1v3h-1v-1h-7v7h1m4 0v1h-2v-1h2M4 21H3v-1h1v1m2 0v-1h2v1H6M4 9H3V7h1v2m0 9H3v-2h1v2M8 4v1H6V4h2M4 5H3V4h1v1m15 16v-1h1v1h-1m0-12V7h1v2h-1m0 9v-2h1v2h-1m0-13V4h1v1h-1z"/></svg><svg width="26" height="26" viewBox="-1 -1 26 26" id="border-left" y="130" xmlns="http://www.w3.org/2000/svg"><path d="M4 4v8h1v1H4v8H3V4h1m2 17v-1h2v1H6m4-16V4h3v1h-1v1h-1V5h-1M6 5V4h2v1H6m5 8v-1h1v1h-1m8-9h1v1h-1V4m-2 0v1h-2V4h2m2 12h1v2h-1v-2m0-9h1v2h-1V7m0 4h1v3h-1v-1h-1v-1h1v-1m-9 9h1v-1h1v1h1v1h-3v-1m5 1v-1h2v1h-2m4-1h1v1h-1v-1m-8-5h1v2h-1v-2m-4-2v-1h2v1H7m7 0v-1h2v1h-2m-3-5h1v2h-1V8z"/></svg><svg width="26" height="26" viewBox="-1 -1 26 26" id="border-none" x="26" y="130" xmlns="http://www.w3.org/2000/svg"><path d="M20 18h-1v-2h1v2M4 14H3v-3h1v1h1v1H4v1m15-2v-1h1v3h-1v-1h-1v-1h1m-5 1v-1h2v1h-2m-3 0v-1h1v1h-1m-4 0v-1h2v1H7m-3 5H3v-2h1v2M3 5V4h1v1H3m0 2h1v2H3V7m12-2V4h2v1h-2M6 5V4h2v1H6m4 0V4h3v1h-1v1h-1V5h-1m10 4h-1V7h1v2m-1-4V4h1v1h-1m-7 12h-1v-2h1v2m0-7h-1V8h1v2M3 20h1v1H3v-1m12 0h2v1h-2v-1m-9 0h2v1H6v-1m4 0h1v-1h1v1h1v1h-3v-1m9 0h1v1h-1v-1z"/></svg><svg width="26" height="26" viewBox="-1 -1 26 26" id="border-outside" x="52" y="130" xmlns="http://www.w3.org/2000/svg"><path d="M3 4h17v17H3V4m1 1v7h1v1H4v7h7v-1h1v1h7v-7h-1v-1h1V5h-7v1h-1V5H4m3 7h2v1H7v-1m4 0h1v1h-1v-1m0 3h1v2h-1v-2m3-3h2v1h-2v-1m-3-2V8h1v2h-1z"/></svg><svg width="26" height="26" viewBox="-1 -1 26 26" id="border-right" x="78" y="130" xmlns="http://www.w3.org/2000/svg"><path d="M19 21v-8h-1v-1h1V4h1v17h-1M17 4v1h-2V4h2m-4 16v1h-3v-1h1v-1h1v1h1m4 0v1h-2v-1h2m-5-8v1h-1v-1h1m-8 9H3v-1h1v1m2 0v-1h2v1H6M4 9H3V7h1v2m0 9H3v-2h1v2m0-4H3v-3h1v1h1v1H4v1m9-9h-1v1h-1V5h-1V4h3v1M8 4v1H6V4h2M4 5H3V4h1v1m8 5h-1V8h1v2m4 2v1h-2v-1h2m-7 0v1H7v-1h2m3 5h-1v-2h1v2z"/></svg><svg width="26" height="26" viewBox="-1 -1 26 26" id="border-top" x="104" y="130" xmlns="http://www.w3.org/2000/svg"><path d="M20 5h-8v1h-1V5H3V4h17v1M3 7h1v2H3V7m16 4h1v3h-1v-1h-1v-1h1v-1m0-4h1v2h-1V7m-8 5h1v1h-1v-1m9 8v1h-1v-1h1m0-2h-1v-2h1v2M8 20v1H6v-1h2m9 0v1h-2v-1h2m-4 0v1h-3v-1h1v-1h1v1h1m-9-9v1h1v1H4v1H3v-3h1m-1 5h1v2H3v-2m1 4v1H3v-1h1m5-8v1H7v-1h2m2-4h1v2h-1V8m0 7h1v2h-1v-2m5-3v1h-2v-1h2z"/></svg><svg width="26" height="26" viewBox="-1 -1 26 26" id="border-vertical" x="130" y="130" xmlns="http://www.w3.org/2000/svg"><path d="M17 4v1h-2V4h2m-4 16v1h-3v-1h1V5h-1V4h3v1h-1v15h1m4 0v1h-2v-1h2M4 21H3v-1h1v1m2 0v-1h2v1H6M4 9H3V7h1v2m0 9H3v-2h1v2m0-4H3v-3h1v1h1v1H4v1M8 4v1H6V4h2M4 5H3V4h1v1m12 7v1h-2v-1h2m-7 0v1H7v-1h2m10 9v-1h1v1h-1m0-12V7h1v2h-1m0 9v-2h1v2h-1m0-4v-1h-1v-1h1v-1h1v3h-1m0-9V4h1v1h-1z"/></svg><svg width="26" height="26" viewBox="-1 -1 26 26" id="briefcase" x="156" xmlns="http://www.w3.org/2000/svg"><path d="M5 7h3V5l2-2h3l2 2v2h3c1.66 0 3 1.34 3 3v8c0 1.66-1.34 3-3 3H5c-1.66 0-3-1.34-3-3v-8c0-1.66 1.34-3 3-3m5.41-3L9 5.41V7h5V5.41L12.59 4h-2.18M5 8c-1.1 0-2 .9-2 2v8c0 1.1.9 2 2 2h13c1.1 0 2-.9 2-2v-8c0-1.1-.9-2-2-2H5z"/></svg><svg width="26" height="26" viewBox="-1 -1 26 26" id="calendar" x="156" y="26" xmlns="http://www.w3.org/2000/svg"><path d="M7 2h1c.55 0 1 .45 1 1v1h5V3c0-.55.45-1 1-1h1c.55 0 1 .45 1 1v1c1.66 0 3 1.34 3 3v11c0 1.66-1.34 3-3 3H6c-1.66 0-3-1.34-3-3V7c0-1.66 1.34-3 3-3V3c0-.55.45-1 1-1m8 2h1V3h-1v1M8 4V3H7v1h1M6 5c-1.1 0-2 .9-2 2v1h15V7c0-1.1-.9-2-2-2H6M4 18c0 1.1.9 2 2 2h11c1.1 0 2-.9 2-2V9H4v9m8-5h5v5h-5v-5m1 1v3h3v-3h-3z"/></svg><svg width="26" height="26" viewBox="-1 -1 26 26" id="camcorder" x="156" y="52" xmlns="http://www.w3.org/2000/svg"><path d="M5 7h9c1.1 0 2 .9 2 2v2.5l4-4v10l-4-4V16c0 1.1-.9 2-2 2H5c-1.1 0-2-.9-2-2V9c0-1.1.9-2 2-2m0 1c-.55 0-1 .45-1 1v7c0 .55.45 1 1 1h9c.55 0 1-.45 1-1V9c0-.55-.45-1-1-1H5m14 1.91l-2.59 2.59L19 15.09V9.91z"/></svg><svg width="26" height="26" viewBox="-1 -1 26 26" id="camera" x="156" y="78" xmlns="http://www.w3.org/2000/svg"><path d="M11.5 8C14 8 16 10 16 12.5S14 17 11.5 17 7 15 7 12.5 9 8 11.5 8m0 1C9.57 9 8 10.57 8 12.5S9.57 16 11.5 16s3.5-1.57 3.5-3.5S13.43 9 11.5 9M5 5h2l2-2h5l2 2h2c1.66 0 3 1.34 3 3v9c0 1.66-1.34 3-3 3H5c-1.66 0-3-1.34-3-3V8c0-1.66 1.34-3 3-3m4.41-1l-2 2H5c-1.1 0-2 .9-2 2v9c0 1.1.9 2 2 2h13c1.1 0 2-.9 2-2V8c0-1.1-.9-2-2-2h-2.41l-2-2H9.41z"/></svg><svg width="26" height="26" viewBox="-1 -1 26 26" id="cancel" x="156" y="104" xmlns="http://www.w3.org/2000/svg"><path d="M11.5 22C6.26 22 2 17.75 2 12.5S6.25 3 11.5 3 21 7.25 21 12.5 16.75 22 11.5 22m0-1a8.5 8.5 0 0 0 8.5-8.5c0-2.17-.81-4.15-2.14-5.65l-12.01 12A8.468 8.468 0 0 0 11.5 21m0-17C6.81 4 3 7.81 3 12.5c0 2.17.81 4.14 2.15 5.64l12-12A8.49 8.49 0 0 0 11.5 4z"/></svg><svg width="26" height="26" viewBox="-1 -1 26 26" id="cart" x="156" y="130" xmlns="http://www.w3.org/2000/svg"><path d="M16 18c1.1 0 2 .9 2 2s-.9 2-2 2-2-.9-2-2 .9-2 2-2m0 1c-.55 0-1 .45-1 1s.45 1 1 1 1-.45 1-1-.45-1-1-1m-9-1c1.1 0 2 .9 2 2s-.9 2-2 2-2-.9-2-2 .9-2 2-2m0 1c-.55 0-1 .45-1 1s.45 1 1 1 1-.45 1-1-.45-1-1-1M18 6H4.27l2.55 6H15c.33 0 .62-.16.8-.4l3-4A1.003 1.003 0 0 0 18 6m-3 7H6.87l-.77 1.56L6 15c0 .55.45 1 1 1h11v1H7a2 2 0 0 1-1.75-2.97l.72-1.47L2.34 4H1V3h2l.85 2H18c1.1 0 2 .9 2 2 0 .5-.17.92-.45 1.26l-2.91 3.89c-.36.51-.96.85-1.64.85z"/></svg><svg width="26" height="26" viewBox="-1 -1 26 26" id="chart-areaspline" y="156" xmlns="http://www.w3.org/2000/svg"><path d="M3 4h1v14l5.57-9.67 6.01 3.47 3.62-6.26.86.5-4.11 7.13L9.94 9.7 4 20h2.3l3.87-6.71.5-.86.86.5 5.15 2.97L20 10.14V21H3V4m14.04 13.26l-6.01-3.47L7.45 20H19v-6.12l-1.96 3.38z"/></svg><svg width="26" height="26" viewBox="-1 -1 26 26" id="chart-bar" x="26" y="156" xmlns="http://www.w3.org/2000/svg"><path d="M2 4h1v16h2V10h4v10h2V6h4v14h2v-6h4v7H2V4m16 11v5h2v-5h-2m-6-8v13h2V7h-2m-6 4v9h2v-9H6z"/></svg><svg width="26" height="26" viewBox="-1 -1 26 26" id="chart-histogram" x="52" y="156" xmlns="http://www.w3.org/2000/svg"><path d="M3 4h1v9h3V7h5v4h4v4h4v6H3V4m13 12v4h3v-4h-3m-4-4v8h3v-8h-3M8 8v12h3V8H8m-4 6v6h3v-6H4z"/></svg><svg width="26" height="26" viewBox="-1 -1 26 26" id="chart-line" x="78" y="156" xmlns="http://www.w3.org/2000/svg"><path d="M3 4h1v14l5.58-9.67 6.01 3.47 3.62-6.26.86.5-4.11 7.13L9.95 9.7 4 20h16v1H3V4z"/></svg><svg width="26" height="26" viewBox="-1 -1 26 26" id="chart-pie" x="104" y="156" xmlns="http://www.w3.org/2000/svg"><path d="M12 3h1c4.42 0 8 3.58 8 8v1h-9V3m1 8h7c0-3.87-3.13-7-7-7v7m-3 3h8c0 4.42-3.58 8-8 8s-8-3.58-8-8 3.58-8 8-8v8m-1 1V7.07c-3.39.49-6 3.4-6 6.93 0 3.87 3.13 7 7 7 3.53 0 6.44-2.61 6.93-6H9z"/></svg><svg width="26" height="26" viewBox="-1 -1 26 26" id="check" x="130" y="156" xmlns="http://www.w3.org/2000/svg"><path d="M18.9 8.1L9 18l-4.95-4.95.71-.71L9 16.59l9.19-9.2.71.71z"/></svg><svg width="26" height="26" viewBox="-1 -1 26 26" id="chevron-double-down" x="156" y="156" xmlns="http://www.w3.org/2000/svg"><path d="M17.16 7.59l-5.66 5.66-5.66-5.66.71-.7 4.95 4.95 4.95-4.95.71.7m0 4l-5.66 5.66-5.66-5.66.71-.7 4.95 4.95 4.95-4.95.71.7z"/></svg><svg width="26" height="26" viewBox="-1 -1 26 26" id="chevron-double-left" x="182" xmlns="http://www.w3.org/2000/svg"><path d="M16.41 18.16l-5.66-5.66 5.66-5.66.7.71-4.95 4.95 4.95 4.95-.7.71m-4 0L6.75 12.5l5.66-5.66.7.71-4.95 4.95 4.95 4.95-.7.71z"/></svg><svg width="26" height="26" viewBox="-1 -1 26 26" id="chevron-double-right" x="182" y="26" xmlns="http://www.w3.org/2000/svg"><path d="M6.59 6.84l5.66 5.66-5.66 5.66-.7-.71 4.95-4.95-4.95-4.95.7-.71m4 0l5.66 5.66-5.66 5.66-.7-.71 4.95-4.95-4.95-4.95.7-.71z"/></svg><svg width="26" height="26" viewBox="-1 -1 26 26" id="chevron-double-up" x="182" y="52" xmlns="http://www.w3.org/2000/svg"><path d="M5.84 17.41l5.66-5.66 5.66 5.66-.71.7-4.95-4.95-4.95 4.95-.71-.7m0-4l5.66-5.66 5.66 5.66-.71.7-4.95-4.95-4.95 4.95-.71-.7z"/></svg><svg width="26" height="26" viewBox="-1 -1 26 26" id="chevron-down" x="182" y="78" xmlns="http://www.w3.org/2000/svg"><path d="M5.84 9.59l5.66 5.66 5.66-5.66-.71-.7-4.95 4.95-4.95-4.95-.71.7z"/></svg><svg width="26" height="26" viewBox="-1 -1 26 26" id="chevron-left" x="182" y="104" xmlns="http://www.w3.org/2000/svg"><path d="M14.41 18.16L8.75 12.5l5.66-5.66.7.71-4.95 4.95 4.95 4.95-.7.71z"/></svg><svg width="26" height="26" viewBox="-1 -1 26 26" id="chevron-right" x="182" y="130" xmlns="http://www.w3.org/2000/svg"><path d="M8.59 18.16l5.66-5.66-5.66-5.66-.7.71 4.95 4.95-4.95 4.95.7.71z"/></svg><svg width="26" height="26" viewBox="-1 -1 26 26" id="chevron-up" x="182" y="156" xmlns="http://www.w3.org/2000/svg"><path d="M5.84 15.41l5.66-5.66 5.66 5.66-.71.7-4.95-4.95-4.95 4.95-.71-.7z"/></svg><svg width="26" height="26" viewBox="-1 -1 26 26" id="clipboard" y="182" xmlns="http://www.w3.org/2000/svg"><path d="M6 5h2.5c0-1.66 1.34-3 3-3s3 1.34 3 3H17c1.66 0 3 1.34 3 3v11c0 1.66-1.34 3-3 3H6c-1.66 0-3-1.34-3-3V8c0-1.66 1.34-3 3-3m0 1c-1.1 0-2 .9-2 2v11c0 1.1.9 2 2 2h11c1.1 0 2-.9 2-2V8c0-1.1-.9-2-2-2h-1v3H7V6H6m2 2h7V6H8v2m3.5-5c-1.1 0-2 .9-2 2h4c0-1.1-.9-2-2-2z"/></svg><svg width="26" height="26" viewBox="-1 -1 26 26" id="clipboard-check" x="26" y="182" xmlns="http://www.w3.org/2000/svg"><path d="M6 5h2.5c0-1.66 1.34-3 3-3s3 1.34 3 3H17c1.66 0 3 1.34 3 3v11c0 1.66-1.34 3-3 3H6c-1.66 0-3-1.34-3-3V8c0-1.66 1.34-3 3-3m0 1c-1.1 0-2 .9-2 2v11c0 1.1.9 2 2 2h11c1.1 0 2-.9 2-2V8c0-1.1-.9-2-2-2h-1v3H7V6H6m2 2h7V6H8v2m3.5-5c-1.1 0-2 .9-2 2h4c0-1.1-.9-2-2-2m5.65 8.6L10 18.75l-3.2-3.2.7-.71 2.5 2.5 6.44-6.45.71.71z"/></svg><svg width="26" height="26" viewBox="-1 -1 26 26" id="clipboard-plus" x="52" y="182" xmlns="http://www.w3.org/2000/svg"><path d="M6 5h2.5c0-1.66 1.34-3 3-3s3 1.34 3 3H17c1.66 0 3 1.34 3 3v11c0 1.66-1.34 3-3 3H6c-1.66 0-3-1.34-3-3V8c0-1.66 1.34-3 3-3m0 1c-1.1 0-2 .9-2 2v11c0 1.1.9 2 2 2h11c1.1 0 2-.9 2-2V8c0-1.1-.9-2-2-2h-1v3H7V6H6m2 2h7V6H8v2m3.5-5c-1.1 0-2 .9-2 2h4c0-1.1-.9-2-2-2M8 19v-2H6v-1h2v-2h1v2h2v1H9v2H8z"/></svg><svg width="26" height="26" viewBox="-1 -1 26 26" id="clipboard-text" x="78" y="182" xmlns="http://www.w3.org/2000/svg"><path d="M6 5h2.5c0-1.66 1.34-3 3-3s3 1.34 3 3H17c1.66 0 3 1.34 3 3v11c0 1.66-1.34 3-3 3H6c-1.66 0-3-1.34-3-3V8c0-1.66 1.34-3 3-3m0 1c-1.1 0-2 .9-2 2v11c0 1.1.9 2 2 2h11c1.1 0 2-.9 2-2V8c0-1.1-.9-2-2-2h-1v3H7V6H6m2 2h7V6H8v2m3.5-5c-1.1 0-2 .9-2 2h4c0-1.1-.9-2-2-2M6 11h11v1H6v-1m0 3h11v1H6v-1m0 3h9v1H6v-1z"/></svg><svg width="26" height="26" viewBox="-1 -1 26 26" id="clock" x="104" y="182" xmlns="http://www.w3.org/2000/svg"><path d="M11.5 3c5.25 0 9.5 4.25 9.5 9.5S16.75 22 11.5 22 2 17.75 2 12.5 6.25 3 11.5 3m0 1C6.81 4 3 7.81 3 12.5c0 4.69 3.81 8.5 8.5 8.5 4.69 0 8.5-3.81 8.5-8.5C20 7.81 16.19 4 11.5 4M11 7h1v5.42l4.7 2.71-.5.87-5.2-3V7z"/></svg><svg width="26" height="26" viewBox="-1 -1 26 26" id="closed-caption" x="130" y="182" xmlns="http://www.w3.org/2000/svg"><path d="M4 5h15c1.66 0 3 1.34 3 3v9c0 1.66-1.34 3-3 3H4c-1.66 0-3-1.34-3-3V8c0-1.66 1.34-3 3-3m0 1c-1.1 0-2 .9-2 2v9c0 1.1.9 2 2 2h15c1.1 0 2-.9 2-2V8c0-1.1-.9-2-2-2H4m4.5 2c1 0 1.9.32 2.65.86l-.59.81C10 9.25 9.27 9 8.5 9 6.57 9 5 10.57 5 12.5S6.57 16 8.5 16c.77 0 1.5-.25 2.06-.67l.59.81c-.75.54-1.65.86-2.65.86C6 17 4 15 4 12.5S6 8 8.5 8m7.85 0c.99 0 1.91.32 2.65.86l-.59.81a3.499 3.499 0 0 0-5.56 2.83 3.499 3.499 0 1 0 5.56 2.83l.59.81c-.74.54-1.66.86-2.65.86-2.48 0-4.5-2-4.5-4.5S13.87 8 16.35 8z"/></svg><svg width="26" height="26" viewBox="-1 -1 26 26" id="cloud" x="156" y="182" xmlns="http://www.w3.org/2000/svg"><path d="M5.5 20C2.46 20 0 17.54 0 14.5S2.46 9 5.5 9c1-2.35 3.3-4 6-4 3.43 0 6.24 2.66 6.5 6.03l.5-.03c2.5 0 4.5 2 4.5 4.5S21 20 18.5 20h-13m0-10C3 10 1 12 1 14.5S3 19 5.5 19h13c1.93 0 3.5-1.57 3.5-3.5a3.504 3.504 0 0 0-5.07-3.13c.07-.28.07-.57.07-.87C17 8.46 14.54 6 11.5 6a5.51 5.51 0 0 0-5.31 4.05L5.5 10z"/></svg><svg width="26" height="26" viewBox="-1 -1 26 26" id="cloud-download" x="182" y="182" xmlns="http://www.w3.org/2000/svg"><path d="M5.5 20C2.46 20 0 17.54 0 14.5S2.46 9 5.5 9c1-2.35 3.3-4 6-4 3.43 0 6.24 2.66 6.5 6.03l.5-.03c2.5 0 4.5 2 4.5 4.5S21 20 18.5 20h-13m0-10C3 10 1 12 1 14.5S3 19 5.5 19h13c1.93 0 3.5-1.57 3.5-3.5a3.504 3.504 0 0 0-5.07-3.13l.07-.87C17 8.46 14.54 6 11.5 6a5.51 5.51 0 0 0-5.31 4.05L5.5 10m6.5 0v5.25L14.25 13l.75.66-3.5 3.5-3.5-3.5.75-.66L11 15.25V10h1z"/></svg><svg width="26" height="26" viewBox="-1 -1 26 26" id="cloud-upload" x="208" xmlns="http://www.w3.org/2000/svg"><path d="M5.5 20C2.46 20 0 17.54 0 14.5S2.46 9 5.5 9c1-2.35 3.3-4 6-4 3.43 0 6.24 2.66 6.5 6.03l.5-.03c2.5 0 4.5 2 4.5 4.5S21 20 18.5 20h-13m0-10C3 10 1 12 1 14.5S3 19 5.5 19h13c1.93 0 3.5-1.57 3.5-3.5a3.504 3.504 0 0 0-5.07-3.13l.07-.87C17 8.46 14.54 6 11.5 6a5.51 5.51 0 0 0-5.31 4.05L5.5 10m6.5 7v-5.25L14.25 14l.75-.66-3.5-3.5-3.5 3.5.75.66L11 11.75V17h1z"/></svg><svg width="26" height="26" viewBox="-1 -1 26 26" id="comment" x="208" y="26" xmlns="http://www.w3.org/2000/svg"><path d="M5 3h13c1.66 0 3 1.34 3 3v9c0 1.66-1.34 3-3 3h-4.59l-3.7 3.71A1.003 1.003 0 0 1 8 21v-3H5c-1.66 0-3-1.34-3-3V6c0-1.66 1.34-3 3-3m13 1H5c-1.1 0-2 .9-2 2v9c0 1.1.9 2 2 2h4v4l4-4h5c1.1 0 2-.9 2-2V6c0-1.1-.9-2-2-2z"/></svg><svg width="26" height="26" viewBox="-1 -1 26 26" id="comment-alert" x="208" y="52" xmlns="http://www.w3.org/2000/svg"><path d="M5 3h13c1.66 0 3 1.34 3 3v9c0 1.66-1.34 3-3 3h-4.59l-3.7 3.71A1.003 1.003 0 0 1 8 21v-3H5c-1.66 0-3-1.34-3-3V6c0-1.66 1.34-3 3-3m13 1H5c-1.1 0-2 .9-2 2v9c0 1.1.9 2 2 2h4v4l4-4h5c1.1 0 2-.9 2-2V6c0-1.1-.9-2-2-2m-7 2h1v5h-1V6m0 7h1v2h-1v-2z"/></svg><svg width="26" height="26" viewBox="-1 -1 26 26" id="comment-text" x="208" y="78" xmlns="http://www.w3.org/2000/svg"><path d="M5 3h13c1.66 0 3 1.34 3 3v9c0 1.66-1.34 3-3 3h-4.59l-3.7 3.71A1.003 1.003 0 0 1 8 21v-3H5c-1.66 0-3-1.34-3-3V6c0-1.66 1.34-3 3-3m13 1H5c-1.1 0-2 .9-2 2v9c0 1.1.9 2 2 2h4v4l4-4h5c1.1 0 2-.9 2-2V6c0-1.1-.9-2-2-2M5 7h13v1H5V7m0 3h12v1H5v-1m0 3h8v1H5v-1z"/></svg><svg width="26" height="26" viewBox="-1 -1 26 26" id="console" x="208" y="104" xmlns="http://www.w3.org/2000/svg"><path d="M5 4h13c1.66 0 3 1.34 3 3v11c0 1.66-1.34 3-3 3H5c-1.66 0-3-1.34-3-3V7c0-1.66 1.34-3 3-3m0 1c-1.1 0-2 .9-2 2h17c0-1.1-.9-2-2-2H5M3 18c0 1.1.9 2 2 2h13c1.1 0 2-.9 2-2V8H3v10m14 0h-5v-1h5v1M6 10.5l.71-.71 4.2 4.21-4.2 4.21L6 17.5 9.5 14 6 10.5z"/></svg><svg width="26" height="26" viewBox="-1 -1 26 26" id="content-cut" x="208" y="130" xmlns="http://www.w3.org/2000/svg"><path d="M9 6.5c0 .79-.26 1.5-.7 2.1L20 20.29V21h-.71l-7.79-7.79-3.2 3.19c.44.6.7 1.31.7 2.1C9 20.43 7.43 22 5.5 22S2 20.43 2 18.5 3.57 15 5.5 15c.79 0 1.5.26 2.1.7l3.19-3.2L7.6 9.3c-.6.44-1.31.7-2.1.7C3.57 10 2 8.43 2 6.5S3.57 3 5.5 3 9 4.57 9 6.5m-1 0a2.5 2.5 0 0 0-5 0 2.5 2.5 0 0 0 5 0M19.29 4H20v.71l-7.15 7.14-.7-.7L19.29 4M5.5 16a2.5 2.5 0 0 0 0 5 2.5 2.5 0 0 0 0-5z"/></svg><svg width="26" height="26" viewBox="-1 -1 26 26" id="content-duplicate" x="208" y="156" xmlns="http://www.w3.org/2000/svg"><path d="M9 6h8c1.66 0 3 1.34 3 3v11c0 1.66-1.34 3-3 3H9c-1.66 0-3-1.34-3-3v-1h1v1c0 1.1.9 2 2 2h8c1.1 0 2-.9 2-2V9c0-1.1-.9-2-2-2H9c-1.1 0-2 .9-2 2v5H6V9c0-1.66 1.34-3 3-3M5 2h10v1H5c-1.1 0-2 .9-2 2v9c0 1.1.9 2 2 2h7.25L10 13.75l.66-.75 3.5 3.5-3.5 3.5-.66-.75L12.25 17H5c-1.66 0-3-1.34-3-3V5c0-1.66 1.34-3 3-3z"/></svg><svg width="26" height="26" viewBox="-1 -1 26 26" id="content-paste" x="208" y="182" xmlns="http://www.w3.org/2000/svg"><path d="M11.5 1a2.5 2.5 0 0 1 2.45 2H17c1.66 0 3 1.34 3 3v13c0 1.66-1.34 3-3 3H6c-1.66 0-3-1.34-3-3V6c0-1.66 1.34-3 3-3h3.05a2.5 2.5 0 0 1 2.45-2m1.41 2a1.495 1.495 0 0 0-2.82 0h2.82M6 4c-1.1 0-2 .9-2 2v13c0 1.1.9 2 2 2h11c1.1 0 2-.9 2-2V6c0-1.1-.9-2-2-2h-1v3H7V4H6m2 0v2h7V4H8z"/></svg><svg width="26" height="26" viewBox="-1 -1 26 26" id="content-save" y="208" xmlns="http://www.w3.org/2000/svg"><path d="M6 4h10.59L20 7.41V18c0 1.66-1.34 3-3 3H6c-1.66 0-3-1.34-3-3V7c0-1.66 1.34-3 3-3m0 1c-1.1 0-2 .9-2 2v11c0 1.1.9 2 2 2h11c1.1 0 2-.9 2-2V7.91L16.09 5H15v5H6V5m1 0v4h7V5H7m5 7c1.66 0 3 1.34 3 3s-1.34 3-3 3-3-1.34-3-3 1.34-3 3-3m0 1c-1.1 0-2 .9-2 2s.9 2 2 2 2-.9 2-2-.9-2-2-2z"/></svg><svg width="26" height="26" viewBox="-1 -1 26 26" id="content-save-all" x="26" y="208" xmlns="http://www.w3.org/2000/svg"><path d="M6 3h10.59L20 6.41V17c0 1.66-1.34 3-3 3H6c-1.66 0-3-1.34-3-3V6c0-1.66 1.34-3 3-3m0 1c-1.1 0-2 .9-2 2v11c0 1.1.9 2 2 2h11c1.1 0 2-.9 2-2V6.91L16.09 4H15v5H6V4m1 0v4h7V4H7m5 7c1.66 0 3 1.34 3 3s-1.34 3-3 3-3-1.34-3-3 1.34-3 3-3m0 1c-1.1 0-2 .9-2 2s.9 2 2 2 2-.9 2-2-.9-2-2-2M6 22c-2.76 0-5-2.24-5-5V7h1v10c0 2.21 1.79 4 4 4h10v1H6z"/></svg><svg width="26" height="26" viewBox="-1 -1 26 26" id="credit-card" x="52" y="208" xmlns="http://www.w3.org/2000/svg"><path d="M5 5h13c1.66 0 3 1.34 3 3v9c0 1.66-1.34 3-3 3H5c-1.66 0-3-1.34-3-3V8c0-1.66 1.34-3 3-3m0 1c-1.1 0-2 .9-2 2v1h17V8c0-1.1-.9-2-2-2H5M3 17c0 1.1.9 2 2 2h13c1.1 0 2-.9 2-2v-5H3v5m2-1h4v1H5v-1m6 0h3v1h-3v-1m-8-6v1h17v-1H3z"/></svg><svg width="26" height="26" viewBox="-1 -1 26 26" id="crop" x="78" y="208" xmlns="http://www.w3.org/2000/svg"><path d="M8 6h7c1.66 0 3 1.34 3 3v7h-1V9c0-1.1-.9-2-2-2H8V6m0 13c-1.66 0-3-1.34-3-3V7H1V6h4V2h1v14c0 1.1.9 2 2 2h13v1h-3v4h-1v-4H8z"/></svg><svg width="26" height="26" viewBox="-1 -1 26 26" id="crop-free" x="104" y="208" xmlns="http://www.w3.org/2000/svg"><path d="M6 4h2v1H6c-1.1 0-2 .9-2 2v2H3V7c0-1.66 1.34-3 3-3M4 18c0 1.1.9 2 2 2h2v1H6c-1.66 0-3-1.34-3-3v-2h1v2M17 4c1.66 0 3 1.34 3 3v2h-1V7c0-1.1-.9-2-2-2h-2V4h2m3 14c0 1.66-1.34 3-3 3h-2v-1h2c1.1 0 2-.9 2-2v-2h1v2z"/></svg><svg width="26" height="26" viewBox="-1 -1 26 26" id="currency-eur" x="130" y="208" xmlns="http://www.w3.org/2000/svg"><path d="M2 11l.5-1h2.87c1.07-3.47 4.31-6 8.13-6 2.13 0 4.08.78 5.57 2.08l-.4.99A7.499 7.499 0 0 0 6.43 10H17.5l-.4 1H6.15a7.631 7.631 0 0 0 0 3h9.75l-.4 1H6.43c1.03 2.91 3.8 5 7.07 5 2.17 0 4.13-.92 5.5-2.4V19c-1.5 1.24-3.4 2-5.5 2-3.82 0-7.06-2.53-8.13-6H2l.5-1h2.63c-.08-.5-.13-1-.13-1.5s.05-1 .13-1.5H2z"/></svg><svg width="26" height="26" viewBox="-1 -1 26 26" id="currency-gbp" x="156" y="208" xmlns="http://www.w3.org/2000/svg"><path d="M7 13v-1h2.82c-.07-.47-.16-.9-.25-1.3-.19-.88-.36-1.7-.32-2.7.08-1.82.67-3.07 1.78-3.73 1.68-1.02 4.02-.27 4.97.09l-.15 1.01c-.64-.27-2.89-1.1-4.31-.24-.8.47-1.23 1.45-1.29 2.87-.04.9.12 1.64.3 2.5.1.45.2.94.29 1.5H15v1h-4.05c.05.38.05.8.05 1.25C11 17.43 9.53 19 8.35 20H17v1H6.5v-1l.81-.43c1.13-.95 2.69-2.24 2.69-5.32 0-.45 0-.87-.05-1.25H7z"/></svg><svg width="26" height="26" viewBox="-1 -1 26 26" id="currency-rub" x="182" y="208" xmlns="http://www.w3.org/2000/svg"><path d="M7 21v-5H6v-1h1v-3H6v-1h1V4h7c2.21 0 4 1.79 4 4s-1.79 4-4 4H8v3h6v1H8v5H7m1-10h6c1.66 0 3-1.34 3-3s-1.34-3-3-3H8v6z"/></svg><svg width="26" height="26" viewBox="-1 -1 26 26" id="currency-usd" x="208" y="208" xmlns="http://www.w3.org/2000/svg"><path d="M11 4h1v2c3.29.15 4 1.7 4 3h-1c0-1.33-1.18-2-3.5-2-.82 0-3.5.16-3.5 2.25 0 .87 0 1.86 3.62 2.75l1.61.5c2.53.93 2.77 2.07 2.77 3.25 0 1.88-1.5 3.09-4 3.25v2h-1v-2c-3.29-.15-4-1.7-4-3h1c0 1.33 1.18 2 3.5 2 .82 0 3.5-.16 3.5-2.25 0-.87 0-1.86-3.62-2.75l-1.61-.5C7.24 11.57 7 10.43 7 9.25 7 7.37 8.5 6.16 11 6V4z"/></svg><svg width="26" height="26" viewBox="-1 -1 26 26" id="delete" x="234" xmlns="http://www.w3.org/2000/svg"><path d="M18 19c0 1.66-1.34 3-3 3H8c-1.66 0-3-1.34-3-3V7H4V4h4.5l1-1h4l1 1H19v3h-1v12M6 7v12c0 1.1.9 2 2 2h7c1.1 0 2-.9 2-2V7H6m12-1V5h-4l-1-1h-3L9 5H5v1h13M8 9h1v10H8V9m6 0h1v10h-1V9z"/></svg><svg width="26" height="26" viewBox="-1 -1 26 26" id="diamond" x="234" y="26" xmlns="http://www.w3.org/2000/svg"><path d="M6 3h11l3.9 5.57L11.5 22 2.1 8.57 6 3m4.16 1l-1.7 4h6.08l-1.7-4h-2.68M8.33 9l3.17 9.76L14.67 9H8.33M3.72 8h3.66l1.7-4H6.5L3.72 8m-.1 1l6.82 9.75L7.28 9H3.62m15.66-1L16.5 4h-2.58l1.7 4h3.66m.1 1h-3.66l-3.16 9.75L19.38 9z"/></svg><svg width="26" height="26" viewBox="-1 -1 26 26" id="dots-horizontal" x="234" y="52" xmlns="http://www.w3.org/2000/svg"><path d="M16 12c0-1.1.9-2 2-2s2 .9 2 2-.9 2-2 2-2-.9-2-2m-6 0c0-1.1.9-2 2-2s2 .9 2 2-.9 2-2 2-2-.9-2-2m-6 0c0-1.1.9-2 2-2s2 .9 2 2-.9 2-2 2-2-.9-2-2m2-1c-.55 0-1 .45-1 1s.45 1 1 1 1-.45 1-1-.45-1-1-1m6 0c-.55 0-1 .45-1 1s.45 1 1 1 1-.45 1-1-.45-1-1-1m6 0c-.55 0-1 .45-1 1s.45 1 1 1 1-.45 1-1-.45-1-1-1z"/></svg><svg width="26" height="26" viewBox="-1 -1 26 26" id="dots-vertical" x="234" y="78" xmlns="http://www.w3.org/2000/svg"><path d="M12 16c1.1 0 2 .9 2 2s-.9 2-2 2-2-.9-2-2 .9-2 2-2m0-6c1.1 0 2 .9 2 2s-.9 2-2 2-2-.9-2-2 .9-2 2-2m0-6c1.1 0 2 .9 2 2s-.9 2-2 2-2-.9-2-2 .9-2 2-2m0 1c-.55 0-1 .45-1 1s.45 1 1 1 1-.45 1-1-.45-1-1-1m0 6c-.55 0-1 .45-1 1s.45 1 1 1 1-.45 1-1-.45-1-1-1m0 6c-.55 0-1 .45-1 1s.45 1 1 1 1-.45 1-1-.45-1-1-1z"/></svg><svg width="26" height="26" viewBox="-1 -1 26 26" id="download" x="234" y="104" xmlns="http://www.w3.org/2000/svg"><path d="M12 4v12.25L17.25 11l.75.66-6.5 6.5-6.5-6.5.75-.66L11 16.25V4h1M3 19h1v2h15v-2h1v3H3v-3z"/></svg><svg width="26" height="26" viewBox="-1 -1 26 26" id="eject" x="234" y="130" xmlns="http://www.w3.org/2000/svg"><path d="M5.33 15l6.17-9.25L17.67 15H5.33M5 18h13v1H5v-1m2-3.97h9l-4.5-6.78L7 14.03z"/></svg><svg width="26" height="26" viewBox="-1 -1 26 26" id="email" x="234" y="156" xmlns="http://www.w3.org/2000/svg"><path d="M5 5h13c1.66 0 3 1.34 3 3v9c0 1.66-1.34 3-3 3H5c-1.66 0-3-1.34-3-3V8c0-1.66 1.34-3 3-3m0 1c-.5 0-.94.17-1.28.47l7.78 5.03 7.78-5.03C18.94 6.17 18.5 6 18 6H5m6.5 6.71L3.13 7.28C3.05 7.5 3 7.75 3 8v9c0 1.1.9 2 2 2h13c1.1 0 2-.9 2-2V8c0-.25-.05-.5-.13-.72l-8.37 5.43z"/></svg><svg width="26" height="26" viewBox="-1 -1 26 26" id="email-open" x="234" y="182" xmlns="http://www.w3.org/2000/svg"><path d="M21 9v9c0 1.66-1.34 3-3 3H5c-1.66 0-3-1.34-3-3V9c0-1.11.6-2.08 1.5-2.6l8-4.62 8 4.62c.9.52 1.5 1.49 1.5 2.6M3.72 7.47l7.78 5.03 7.78-5.03-7.78-4.54-7.78 4.54m7.78 6.24L3.13 8.28C3.05 8.5 3 8.75 3 9v9c0 1.1.9 2 2 2h13c1.1 0 2-.9 2-2V9c0-.25-.05-.5-.13-.72l-8.37 5.43z"/></svg><svg width="26" height="26" viewBox="-1 -1 26 26" id="eye" x="234" y="208" xmlns="http://www.w3.org/2000/svg"><path d="M11.5 18c4 0 7.46-2.22 9.24-5.5C18.96 9.22 15.5 7 11.5 7s-7.46 2.22-9.24 5.5C4.04 15.78 7.5 18 11.5 18m0-12c4.56 0 8.5 2.65 10.36 6.5C20 16.35 16.06 19 11.5 19S3 16.35 1.14 12.5C3 8.65 6.94 6 11.5 6m0 2C14 8 16 10 16 12.5S14 17 11.5 17 7 15 7 12.5 9 8 11.5 8m0 1C9.57 9 8 10.57 8 12.5S9.57 16 11.5 16s3.5-1.57 3.5-3.5S13.43 9 11.5 9z"/></svg><svg width="26" height="26" viewBox="-1 -1 26 26" id="eye-off" y="234" xmlns="http://www.w3.org/2000/svg"><path d="M2.54 4.71L3.25 4 20 20.75l-.71.71-3.34-3.35c-1.37.57-2.87.89-4.45.89-4.56 0-8.5-2.65-10.36-6.5.97-2 2.49-3.67 4.36-4.82L2.54 4.71M11.5 18c1.29 0 2.53-.23 3.67-.66l-1.12-1.13c-.73.5-1.6.79-2.55.79C9 17 7 15 7 12.5c0-.95.29-1.82.79-2.55L6.24 8.41a10.64 10.64 0 0 0-3.98 4.09C4.04 15.78 7.5 18 11.5 18m9.24-5.5C18.96 9.22 15.5 7 11.5 7c-1.15 0-2.27.19-3.31.53l-.78-.78C8.68 6.26 10.06 6 11.5 6c4.56 0 8.5 2.65 10.36 6.5a11.47 11.47 0 0 1-4.07 4.63l-.72-.73c1.53-.96 2.8-2.3 3.67-3.9M11.5 8C14 8 16 10 16 12.5c0 .82-.22 1.58-.6 2.24l-.74-.74c.22-.46.34-.96.34-1.5 0-1.93-1.57-3.5-3.5-3.5-.54 0-1.04.12-1.5.34l-.74-.74c.66-.38 1.42-.6 2.24-.6M8 12.5c0 1.93 1.57 3.5 3.5 3.5.67 0 1.29-.19 1.82-.5L8.5 10.68c-.31.53-.5 1.15-.5 1.82z"/></svg><svg width="26" height="26" viewBox="-1 -1 26 26" id="factory" x="26" y="234" xmlns="http://www.w3.org/2000/svg"><path d="M2 8l7 4.04V8l7 4V3h5v19H2V8m15 6l-7-4.27v4.04L3 9.73V21h17V4h-3v10M5 15h3v1H5v-1m0 3h5v1H5v-1m7-3h3v1h-3v-1m0 3h6v1h-6v-1z"/></svg><svg width="26" height="26" viewBox="-1 -1 26 26" id="fast-forward" x="52" y="234" xmlns="http://www.w3.org/2000/svg"><path d="M21.4 12.5L12 18.38 11 19v-5.62l-8 5L2 19V6l9 5.62V6l10.4 6.5m-1.9 0L12 7.8v9.4l7.5-4.7m-9 0L3 7.8v9.4l7.5-4.7z"/></svg><svg width="26" height="26" viewBox="-1 -1 26 26" id="file" x="78" y="234" xmlns="http://www.w3.org/2000/svg"><path d="M14 11c-1.66 0-3-1.34-3-3V4H7c-1.1 0-2 .9-2 2v13c0 1.1.9 2 2 2h9c1.1 0 2-.9 2-2v-8h-4m-2-3c0 1.1.9 2 2 2h3.59L12 4.41V8M7 3h5l7 7v9c0 1.66-1.34 3-3 3H7c-1.66 0-3-1.34-3-3V6c0-1.66 1.34-3 3-3z"/></svg><svg width="26" height="26" viewBox="-1 -1 26 26" id="file-multiple" x="104" y="234" xmlns="http://www.w3.org/2000/svg"><path d="M15 11c-1.66 0-3-1.34-3-3V4H8c-1.1 0-2 .9-2 2v13c0 1.1.9 2 2 2h9c1.1 0 2-.9 2-2v-8h-4m-2-3c0 1.1.9 2 2 2h3.59L13 4.41V8M8 3h5l7 7v9c0 1.66-1.34 3-3 3H8c-1.66 0-3-1.34-3-3V6c0-1.66 1.34-3 3-3m0 21c-2.76 0-5-2.24-5-5V7h1v12c0 2.21 1.79 4 4 4h8v1H8z"/></svg><svg width="26" height="26" viewBox="-1 -1 26 26" id="file-plus" x="130" y="234" xmlns="http://www.w3.org/2000/svg"><path d="M14 11c-1.66 0-3-1.34-3-3V4H7c-1.1 0-2 .9-2 2v13c0 1.1.9 2 2 2h9c1.1 0 2-.9 2-2v-8h-4m-2-3c0 1.1.9 2 2 2h3.59L12 4.41V8M7 3h5l7 7v9c0 1.66-1.34 3-3 3H7c-1.66 0-3-1.34-3-3V6c0-1.66 1.34-3 3-3m2 16v-2H7v-1h2v-2h1v2h2v1h-2v2H9z"/></svg><svg width="26" height="26" viewBox="-1 -1 26 26" id="flag" x="156" y="234" xmlns="http://www.w3.org/2000/svg"><path d="M5 5h8.42l1.16 2H19v9h-6l-1.15-2H6v7H5V5m13 10V8h-4l-1.15-2H6v7h6.42l1.16 2H18z"/></svg><svg width="26" height="26" viewBox="-1 -1 26 26" id="flash" x="182" y="234" xmlns="http://www.w3.org/2000/svg"><path d="M16 3l-3.5 7H16l-6 12.03V14H7V3h9m-5.11 8l3.49-7H8v9h3v4.79L14.38 11h-3.49z"/></svg><svg width="26" height="26" viewBox="-1 -1 26 26" id="flask" x="208" y="234" xmlns="http://www.w3.org/2000/svg"><path d="M13 6h1V5c0-.55-.45-1-1-1h-3c-.55 0-1 .45-1 1v1h1v2.07l-5.71 9.9c-.19.3-.29.65-.29 1.03 0 1.1.9 2 2 2h11c1.1 0 2-.9 2-2 0-.38-.1-.73-.29-1.03L13 8.07V6M6 22c-1.66 0-3-1.34-3-3 0-.6.18-1.16.5-1.63L9 7.81V7c-.55 0-1-.45-1-1V5c0-1.1.9-2 2-2h3c1.1 0 2 .9 2 2v1c0 .55-.45 1-1 1v.81l5.5 9.56c.32.47.5 1.03.5 1.63 0 1.66-1.34 3-3 3H6m6.29-6.71l1.63-1.62L17 19H6l3.66-6.34 2.63 2.63m0 1.42l-2.41-2.42L7.73 18h7.54l-1.56-2.71-1.42 1.42M12 10c.55 0 1 .45 1 1s-.45 1-1 1-1-.45-1-1 .45-1 1-1z"/></svg><svg width="26" height="26" viewBox="-1 -1 26 26" id="flask-empty" x="234" y="234" xmlns="http://www.w3.org/2000/svg"><path d="M13 6h1V5c0-.55-.45-1-1-1h-3c-.55 0-1 .45-1 1v1h1v2.07l-5.71 9.9c-.19.3-.29.65-.29 1.03 0 1.1.9 2 2 2h11c1.1 0 2-.9 2-2 0-.38-.1-.73-.29-1.03L13 8.07V6M6 22c-1.66 0-3-1.34-3-3 0-.6.18-1.16.5-1.63L9 7.81V7c-.55 0-1-.45-1-1V5c0-1.1.9-2 2-2h3c1.1 0 2 .9 2 2v1c0 .55-.45 1-1 1v.81l5.5 9.56c.32.47.5 1.03.5 1.63 0 1.66-1.34 3-3 3H6z"/></svg><svg width="26" height="26" viewBox="-1 -1 26 26" id="folder" x="260" xmlns="http://www.w3.org/2000/svg"><path d="M5 5h4l3 3h6c1.66 0 3 1.34 3 3v6c0 1.66-1.34 3-3 3H5c-1.66 0-3-1.34-3-3V8c0-1.66 1.34-3 3-3m0 1c-1.1 0-2 .9-2 2v9c0 1.1.9 2 2 2h13c1.1 0 2-.9 2-2v-6c0-1.1-.9-2-2-2h-6.41l-3-3H5z"/></svg><svg width="26" height="26" viewBox="-1 -1 26 26" id="folder-multiple" x="260" y="26" xmlns="http://www.w3.org/2000/svg"><path d="M6 5h3l3 3h7c1.66 0 3 1.34 3 3v6c0 1.66-1.34 3-3 3H6c-1.66 0-3-1.34-3-3V8c0-1.66 1.34-3 3-3m0 1c-1.1 0-2 .9-2 2v9c0 1.1.9 2 2 2h13c1.1 0 2-.9 2-2v-6c0-1.1-.9-2-2-2h-7.41l-3-3H6m0 16c-2.76 0-5-2.24-5-5V9h1v8c0 2.21 1.79 4 4 4h12v1H6z"/></svg><svg width="26" height="26" viewBox="-1 -1 26 26" id="folder-plus" x="260" y="52" xmlns="http://www.w3.org/2000/svg"><path d="M5 5h4l3 3h6c1.66 0 3 1.34 3 3v6c0 1.66-1.34 3-3 3H5c-1.66 0-3-1.34-3-3V8c0-1.66 1.34-3 3-3m0 1c-1.1 0-2 .9-2 2v9c0 1.1.9 2 2 2h13c1.1 0 2-.9 2-2v-6c0-1.1-.9-2-2-2h-6.41l-3-3H5m2 11v-2H5v-1h2v-2h1v2h2v1H8v2H7z"/></svg><svg width="26" height="26" viewBox="-1 -1 26 26" id="format-align-bottom" x="260" y="78" xmlns="http://www.w3.org/2000/svg"><path d="M3 21v-1h13v1H3m0-4v-1h17v1H3m8-13h1v8.25L15.25 9l.75.66-4.5 4.5L7 9.66 7.75 9 11 12.25V4z"/></svg><svg width="26" height="26" viewBox="-1 -1 26 26" id="format-align-center" x="260" y="104" xmlns="http://www.w3.org/2000/svg"><path d="M3 4h17v1H3V4m4 4h9v1H7V8m-4 4h17v1H3v-1m4 4h9v1H7v-1m-4 4h17v1H3v-1z"/></svg><svg width="26" height="26" viewBox="-1 -1 26 26" id="format-align-justify" x="260" y="130" xmlns="http://www.w3.org/2000/svg"><path d="M3 5V4h17v1H3m0 4V8h17v1H3m0 4v-1h17v1H3m0 4v-1h17v1H3m0 4v-1h17v1H3z"/></svg><svg width="26" height="26" viewBox="-1 -1 26 26" id="format-align-left" x="260" y="156" xmlns="http://www.w3.org/2000/svg"><path d="M3 21v-1h17v1H3m0-4v-1h11v1H3m0-4v-1h17v1H3m0-4V8h11v1H3m0-4V4h17v1H3z"/></svg><svg width="26" height="26" viewBox="-1 -1 26 26" id="format-align-middle" x="260" y="182" xmlns="http://www.w3.org/2000/svg"><path d="M3 13v-1h17v1H3m8-9h1v4.25L14.25 6l.75.66-3.5 3.5L8 6.66 8.75 6 11 8.25V4m0 17v-4.25L8.75 19 8 18.34l3.5-3.5 3.5 3.5-.75.66L12 16.75V21h-1z"/></svg><svg width="26" height="26" viewBox="-1 -1 26 26" id="format-align-right" x="260" y="208" xmlns="http://www.w3.org/2000/svg"><path d="M20 4v1H3V4h17m0 4v1H9V8h11m0 4v1H3v-1h17m0 4v1H9v-1h11m0 4v1H3v-1h17z"/></svg><svg width="26" height="26" viewBox="-1 -1 26 26" id="format-align-top" x="260" y="234" xmlns="http://www.w3.org/2000/svg"><path d="M3 4h17v1H3V4m0 4h13v1H3V8m8 13v-8.25L7.75 16 7 15.34l4.5-4.5 4.5 4.5-.75.66L12 12.75V21h-1z"/></svg><svg width="26" height="26" viewBox="-1 -1 26 26" id="format-bold" y="260" xmlns="http://www.w3.org/2000/svg"><path d="M16 14.5c0 1.93-1.57 3.5-3.5 3.5H7V5h4.5C13.43 5 15 6.57 15 8.5c0 1.1-.5 2.07-1.29 2.71C15.05 11.71 16 13 16 14.5M11.5 6H8v5h3.5a2.5 2.5 0 0 0 0-5m1 6H8v5h4.5a2.5 2.5 0 0 0 0-5z"/></svg><svg width="26" height="26" viewBox="-1 -1 26 26" id="format-clear" x="26" y="260" xmlns="http://www.w3.org/2000/svg"><path d="M8 4h9v1h-4L8.5 17h-1L12 5H8V4M5 21v-1h8v1H5m11.79-3.5L14 14.71l.71-.71 2.79 2.79L20.29 14l.71.71-2.79 2.79L21 20.29l-.71.71-2.79-2.79L14.71 21l-.71-.71 2.79-2.79z"/></svg><svg width="26" height="26" viewBox="-1 -1 26 26" id="format-float-center" x="52" y="260" xmlns="http://www.w3.org/2000/svg"><path d="M3 4h17v1H3V4m0 12h17v1H3v-1m13 4v1H3v-1h13M8 7h7v7H8V7m6 1H9v5h5V8z"/></svg><svg width="26" height="26" viewBox="-1 -1 26 26" id="format-float-left" x="78" y="260" xmlns="http://www.w3.org/2000/svg"><path d="M3 4h17v1H3V4m9 4h8v1h-8V8m0 4h8v1h-8v-1m-9 4h13v1H3v-1m17 4v1H3v-1h17M3 7h7v7H3V7m6 1H4v5h5V8z"/></svg><svg width="26" height="26" viewBox="-1 -1 26 26" id="format-float-none" x="104" y="260" xmlns="http://www.w3.org/2000/svg"><path d="M3 4h17v1H3V4m9 9v-1h8v1h-8M3 7h7v7H3V7m1 1v5h5V8H4m-1 8h13v1H3v-1m0 4h17v1H3v-1z"/></svg><svg width="26" height="26" viewBox="-1 -1 26 26" id="format-float-right" x="130" y="260" xmlns="http://www.w3.org/2000/svg"><path d="M20 4v1H3V4h17m-9 4v1H3V8h8m-8 4h5v1H3v-1m0 4h13v1H3v-1m0 4h17v1H3v-1M20 7v7h-7V7h7m-1 1h-5v5h5V8z"/></svg><svg width="26" height="26" viewBox="-1 -1 26 26" id="format-indent-decrease" x="156" y="260" xmlns="http://www.w3.org/2000/svg"><path d="M3 21v-1h17v1H3m8-4v-1h9v1h-9m0-4v-1h9v1h-9m0-4V8h9v1h-9M3 5V4h17v1H3m0 7.5L8.5 18V7L3 12.5m1.41 0L7.5 9.41v6.18L4.41 12.5z"/></svg><svg width="26" height="26" viewBox="-1 -1 26 26" id="format-indent-increase" x="182" y="260" xmlns="http://www.w3.org/2000/svg"><path d="M3 21v-1h17v1H3m8-4v-1h9v1h-9m0-4v-1h9v1h-9m0-4V8h9v1h-9M3 5V4h17v1H3m5.5 7.5L3 18V7l5.5 5.5m-1.41 0L4 9.41v6.18l3.09-3.09z"/></svg><svg width="26" height="26" viewBox="-1 -1 26 26" id="format-italic" x="208" y="260" xmlns="http://www.w3.org/2000/svg"><path d="M6 17v-1h3l4-11h-3V4h7v1h-3l-4 11h3v1H6z"/></svg><svg width="26" height="26" viewBox="-1 -1 26 26" id="format-line-spacing" x="234" y="260" xmlns="http://www.w3.org/2000/svg"><path d="M21 6v1H10V6h11m0 6v1H10v-1h11m0 6v1H10v-1h11M5 19.25L7.25 17l.75.66-3.5 3.5-3.5-3.5.75-.66L4 19.25V5.75L1.75 8 1 7.34l3.5-3.5L8 7.34 7.25 8 5 5.75v13.5z"/></svg><svg width="26" height="26" viewBox="-1 -1 26 26" id="format-list-bulleted" x="260" y="260" xmlns="http://www.w3.org/2000/svg"><path d="M20 18v1H7v-1h13m-16.5-.5c.55 0 1 .45 1 1s-.45 1-1 1-1-.45-1-1 .45-1 1-1M20 12v1H7v-1h13m-16.5-.5c.55 0 1 .45 1 1s-.45 1-1 1-1-.45-1-1 .45-1 1-1M20 6v1H7V6h13M3.5 5.5c.55 0 1 .45 1 1s-.45 1-1 1-1-.45-1-1 .45-1 1-1z"/></svg><svg width="26" height="26" viewBox="-1 -1 26 26" id="format-list-checks" x="286" xmlns="http://www.w3.org/2000/svg"><path d="M20 18v1H7v-1h13m0-6v1H7v-1h13m0-6v1H7V6h13M2 5h3v3H2V5m1 1v1h1V6H3m-1 5h3v3H2v-3m1 1v1h1v-1H3m-1 5h3v3H2v-3m1 1v1h1v-1H3z"/></svg><svg width="26" height="26" viewBox="-1 -1 26 26" id="format-list-numbers" x="286" y="26" xmlns="http://www.w3.org/2000/svg"><path d="M2 11v-1h3v.9L3.2 13H5v1H2v-.9L3.8 11H2m1-3V5H2V4h2v4H3m-1 9v-1h3v4H2v-1h2v-.5H3v-1h1V17H2M20 6v1H7V6h13m0 6v1H7v-1h13m0 6v1H7v-1h13z"/></svg><svg width="26" height="26" viewBox="-1 -1 26 26" id="format-quote-close" x="286" y="52" xmlns="http://www.w3.org/2000/svg"><path d="M18 6v8l-1.95 4h-4.2l1.95-4H12V6h6m-1 7.77V7h-4v6h2.4l-1.95 4h1.97L17 13.77M11 6v8l-1.95 4h-4.2l1.95-4H5V6h6m-1 7.77V7H6v6h2.4l-1.95 4h1.97L10 13.77z"/></svg><svg width="26" height="26" viewBox="-1 -1 26 26" id="format-quote-open" x="286" y="78" xmlns="http://www.w3.org/2000/svg"><path d="M5 18v-8l1.95-4h4.2L9.2 10H11v8H5m1-7.77V17h4v-6H7.6l1.95-4H7.58L6 10.23M12 18v-8l1.95-4h4.2l-1.95 4H18v8h-6m1-7.77V17h4v-6h-2.4l1.95-4h-1.97L13 10.23z"/></svg><svg width="26" height="26" viewBox="-1 -1 26 26" id="format-underline" x="286" y="104" xmlns="http://www.w3.org/2000/svg"><path d="M17 11.5c0 3.04-2.46 5.5-5.5 5.5S6 14.54 6 11.5V4h1v7.5C7 14 9 16 11.5 16s4.5-2 4.5-4.5V4h1v7.5M5 21v-1h13v1H5z"/></svg><svg width="26" height="26" viewBox="-1 -1 26 26" id="format-wrap-inline" x="286" y="130" xmlns="http://www.w3.org/2000/svg"><path d="M20 4v1H3V4h17m0 12v1h-6v-1h6m0 4v1H3v-1h17M7.5 8l4.5 9H3l4.5-9m0 2.24L4.62 16h5.76L7.5 10.24z"/></svg><svg width="26" height="26" viewBox="-1 -1 26 26" id="format-wrap-square" xmlns="http://www.w3.org/2000/svg"><path d="M11.5 8l4.5 9H7l4.5-9m0 2.24L8.62 16h5.76l-2.88-5.76M3 16h2v1H3v-1m0-4h2v1H3v-1m0-4h2v1H3V8m15 0h2v1h-2V8m0 4h2v1h-2v-1m0 4h2v1h-2v-1m2 4v1H3v-1h17M3 4h17v1H3V4z"/></svg><svg width="26" height="26" viewBox="-1 -1 26 26" id="format-wrap-tight" x="286" y="182" xmlns="http://www.w3.org/2000/svg"><path d="M11.5 8l4.5 9H7l4.5-9m0 2.24L8.62 16h5.76l-2.88-5.76M3 4h17v1H3V4m11 4h6v1h-6V8M3 8h6v1H3V8m0 4h4v1H3v-1m0 4h2v1H3v-1m15 0h2v1h-2v-1m-2-4h4v1h-4v-1M3 20h17v1H3v-1z"/></svg><svg width="26" height="26" viewBox="-1 -1 26 26" id="format-wrap-top-bottom" x="286" y="208" xmlns="http://www.w3.org/2000/svg"><path d="M11.5 8l4.5 9H7l4.5-9m0 2.24L8.62 16h5.76l-2.88-5.76M3 4h17v1H3V4m17 16v1H3v-1h17z"/></svg><svg width="26" height="26" viewBox="-1 -1 26 26" id="forum" x="286" y="234" xmlns="http://www.w3.org/2000/svg"><path d="M2 16.59L5.59 13H15c1.1 0 2-.9 2-2V6c0-1.1-.9-2-2-2H4c-1.1 0-2 .9-2 2v10.59M2 18H1V6c0-1.66 1.34-3 3-3h11c1.66 0 3 1.34 3 3v5c0 1.66-1.34 3-3 3H6l-4 4m19 2.59V10c0-1.1-.9-2-2-2V7c1.66 0 3 1.34 3 3v12h-1l-4-4H8c-1.24 0-2.3-.75-2.76-1.82l.8-.8C6.21 16.3 7 17 8 17h9.41L21 20.59z"/></svg><svg width="26" height="26" viewBox="-1 -1 26 26" id="fullscreen" x="286" y="260" xmlns="http://www.w3.org/2000/svg"><path d="M5 4h13c1.66 0 3 1.34 3 3v11c0 1.66-1.34 3-3 3H5c-1.66 0-3-1.34-3-3V7c0-1.66 1.34-3 3-3m0 1c-1.1 0-2 .9-2 2v11c0 1.1.9 2 2 2h13c1.1 0 2-.9 2-2V7c0-1.1-.9-2-2-2H5m5 3h7v7h-1V9.71l-7.15 7.14-.7-.7L15.29 9H10V8z"/></svg><svg width="26" height="26" viewBox="-1 -1 26 26" id="fullscreen-close" y="286" xmlns="http://www.w3.org/2000/svg"><path d="M18 21H5c-1.66 0-3-1.34-3-3V7c0-1.66 1.34-3 3-3h13c1.66 0 3 1.34 3 3v11c0 1.66-1.34 3-3 3m0-1c1.1 0 2-.9 2-2V7c0-1.1-.9-2-2-2H5c-1.1 0-2 .9-2 2v11c0 1.1.9 2 2 2h13m-5-3H6v-7h1v5.29l7.15-7.14.7.7L7.71 16H13v1z"/></svg><svg width="26" height="26" viewBox="-1 -1 26 26" id="gift" x="26" y="286" xmlns="http://www.w3.org/2000/svg"><path d="M4 13v8h7v-8H4m8 0v8h7v-8h-7m8 0v9H3v-9H2V7h3.04L5 6.5C5 4.57 6.57 3 8.5 3c1.27 0 2.39.68 3 1.7.61-1.02 1.73-1.7 3-1.7C16.43 3 18 4.57 18 6.5l-.04.5H21v6h-1M3 8v4h8V8H3m17 4V8h-8v4h8m-3.05-5l.05-.5a2.5 2.5 0 0 0-5 0V7h4.95M11 7v-.5a2.5 2.5 0 0 0-5 0l.05.5H11z"/></svg><svg width="26" height="26" viewBox="-1 -1 26 26" id="grid" x="52" y="286" xmlns="http://www.w3.org/2000/svg"><path d="M5 3h13c1.66 0 3 1.34 3 3v13c0 1.66-1.34 3-3 3H5c-1.66 0-3-1.34-3-3V6c0-1.66 1.34-3 3-3m0 1c-1.1 0-2 .9-2 2v3h5V4H5M3 19c0 1.1.9 2 2 2h3v-5H3v3m5-9H3v5h5v-5m10 11c1.1 0 2-.9 2-2v-3h-5v5h3m2-11h-5v5h5v-5m0-4c0-1.1-.9-2-2-2h-3v5h5V6M9 4v5h5V4H9m0 17h5v-5H9v5m5-11H9v5h5v-5z"/></svg><svg width="26" height="26" viewBox="-1 -1 26 26" id="grid-large" x="78" y="286" xmlns="http://www.w3.org/2000/svg"><path d="M12 4v8h8V6c0-1.1-.9-2-2-2h-6m8 9h-8v8h6c1.1 0 2-.9 2-2v-6m-9 8v-8H3v6c0 1.1.9 2 2 2h6m-8-9h8V4H5c-1.1 0-2 .9-2 2v6m2-9h13c1.66 0 3 1.34 3 3v13c0 1.66-1.34 3-3 3H5c-1.66 0-3-1.34-3-3V6c0-1.66 1.34-3 3-3z"/></svg><svg width="26" height="26" viewBox="-1 -1 26 26" id="grid-off" x="104" y="286" xmlns="http://www.w3.org/2000/svg"><path d="M.79 2.46l.71-.71L22.25 22.5l-.71.71-1.78-1.78c-.49.36-1.1.57-1.76.57H5c-1.66 0-3-1.34-3-3V6c0-.66.21-1.27.57-1.76L.79 2.46M5 3h13c1.66 0 3 1.34 3 3v13l-.09.74-.91-.9V16h-2.84l-1-1H20v-5h-5v3.84l-1-1V10h-2.84l-1-1H14V4H9v3.84l-1-1V4H5.16l-.9-.91L5 3M3 6v3h4.34L3.29 4.96C3.11 5.26 3 5.62 3 6m6 9h4.34L9 10.66V15m6 6h3c.38 0 .74-.11 1.04-.29L15 16.66V21M3 19c0 1.1.9 2 2 2h3v-5H3v3m5-9H3v5h5v-5m12-4c0-1.1-.9-2-2-2h-3v5h5V6M9 21h5v-5H9v5z"/></svg><svg width="26" height="26" viewBox="-1 -1 26 26" id="group" x="130" y="286" xmlns="http://www.w3.org/2000/svg"><path d="M7 8v5h6V8H7M2 3h3v1h13V3h3v3h-1v13h1v3h-3v-1H5v1H2v-3h1V6H2V3m3 16v1h13v-1h1V6h-1V5H5v1H4v13h1M6 7h8v4h3v7H8v-4H6V7m8 7H9v3h7v-5h-2v2M3 4v1h1V4H3m16 0v1h1V4h-1m0 16v1h1v-1h-1M3 20v1h1v-1H3z"/></svg><svg width="26" height="26" viewBox="-1 -1 26 26" id="hamburger" x="156" y="286" xmlns="http://www.w3.org/2000/svg"><path d="M7 4h9c2.76 0 5 2.24 5 5H2c0-2.76 2.24-5 5-5m9 1H7C5.14 5 3.57 6.27 3.13 8h16.74c-.44-1.73-2.01-3-3.87-3m5 11c0 2.76-2.24 5-5 5H7c-2.76 0-5-2.24-5-5h19M7 20h9c1.86 0 3.43-1.27 3.87-3H3.13c.44 1.73 2.01 3 3.87 3m5.5-10l2 2 2-2H19c1.1 0 2 .9 2 2v1c0 1.1-.9 2-2 2H4c-1.1 0-2-.9-2-2v-1c0-1.1.9-2 2-2h8.5m2 3.41L12.09 11H4c-.55 0-1 .45-1 1v1c0 .55.45 1 1 1h15c.55 0 1-.45 1-1v-1c0-.55-.45-1-1-1h-2.09l-2.41 2.41z"/></svg><svg width="26" height="26" viewBox="-1 -1 26 26" id="heart" x="182" y="286" xmlns="http://www.w3.org/2000/svg"><path d="M4.24 12.25a4.19 4.19 0 0 1-1.24-3C3 6.9 4.9 5 7.25 5c1.58 0 2.96.86 3.69 2.14h1.12A4.241 4.241 0 0 1 15.75 5C18.1 5 20 6.9 20 9.25c0 1.17-.5 2.25-1.24 3L11.5 19.5l-7.26-7.25m15.22.71A5.247 5.247 0 0 0 15.75 4c-1.75 0-3.3.85-4.25 2.17A5.218 5.218 0 0 0 7.25 4a5.247 5.247 0 1 0-3.71 8.96l7.96 7.96 7.96-7.96z"/></svg><svg width="26" height="26" viewBox="-1 -1 26 26" id="heart-half" x="208" y="286" xmlns="http://www.w3.org/2000/svg"><path d="M4.24 12.25l7.26 7.25v1.42l-7.96-7.96A5.247 5.247 0 0 1 7.25 4c1.75 0 3.3.85 4.25 2.17v.97h-.56A4.241 4.241 0 0 0 7.25 5C4.9 5 3 6.9 3 9.25c0 1.17.47 2.25 1.24 3z"/></svg><svg width="26" height="26" viewBox="-1 -1 26 26" id="heart-off" x="234" y="286" xmlns="http://www.w3.org/2000/svg"><path d="M1.79 3.46l.71-.71L19.25 19.5l-.71.71-3.16-3.17-3.88 3.88-7.96-7.96a5.247 5.247 0 0 1 .17-7.59L1.79 3.46m2.45 8.79l7.26 7.25 3.17-3.16L4.42 6.08C3.55 6.86 3 8 3 9.25c0 1.17.47 2.25 1.24 3m14.52 0c.74-.75 1.24-1.83 1.24-3C20 6.9 18.1 5 15.75 5c-1.58 0-2.96.86-3.69 2.14h-1.12A4.241 4.241 0 0 0 7.25 5l-.97.11-.81-.8C6.03 4.11 6.63 4 7.25 4c1.75 0 3.3.85 4.25 2.17C12.45 4.85 14 4 15.75 4a5.247 5.247 0 1 1 3.71 8.96l-2.67 2.67-.7-.71 2.67-2.67z"/></svg><svg width="26" height="26" viewBox="-1 -1 26 26" id="help" x="260" y="286" xmlns="http://www.w3.org/2000/svg"><path d="M11 22v-2h1v2h-1m0-4.5c0-4.5 5-6 5-9C16 6 14 4 11.5 4 9.18 4 7.28 5.75 7.03 8H6c.28-2.8 2.63-5 5.5-5C14.54 3 17 5.46 17 8.5c0 3.5-5 4.5-5 9v.5h-1v-.5z"/></svg><svg width="26" height="26" viewBox="-1 -1 26 26" id="help-circle" x="286" y="286" xmlns="http://www.w3.org/2000/svg"><path d="M11.5 4C6.81 4 3 7.81 3 12.5c0 4.69 3.81 8.5 8.5 8.5 4.69 0 8.5-3.81 8.5-8.5C20 7.81 16.19 4 11.5 4m0-1c5.25 0 9.5 4.25 9.5 9.5S16.75 22 11.5 22 2 17.75 2 12.5 6.25 3 11.5 3M11 17h1v2h-1v-2m.5-11C13.43 6 15 7.57 15 9.5c0 .9-.7 1.5-1.44 2.18l-.93.9c-.59.67-.66 1.95-.63 2.39V15h-1c0-.05-.1-1.96.87-3.08l1.03-.99c.6-.53 1.1-.98 1.1-1.43a2.5 2.5 0 0 0-5 0H8C8 7.57 9.57 6 11.5 6z"/></svg><svg width="26" height="26" viewBox="-1 -1 26 26" id="home" x="312" xmlns="http://www.w3.org/2000/svg"><path d="M16 8.41l-4.5-4.5L4.41 11H6v8h3v-6h5v6h3v-8h1.59L17 9.41V6h-1v2.41M2 12l9.5-9.5L15 6V5h3v4l3 3h-3v8h-5v-6h-3v6H5v-8H2z"/></svg><svg width="26" height="26" viewBox="-1 -1 26 26" id="inbox" x="312" y="26" xmlns="http://www.w3.org/2000/svg"><path d="M6 4h11c1.66 0 3 1.34 3 3v11c0 1.66-1.34 3-3 3H6c-1.66 0-3-1.34-3-3V7c0-1.66 1.34-3 3-3m0 1c-1.1 0-2 .9-2 2v8h5v.5a2.5 2.5 0 0 0 5 0V15h5V7c0-1.1-.9-2-2-2H6M4 18c0 1.1.9 2 2 2h11c1.1 0 2-.9 2-2v-2h-4.04c-.24 1.7-1.7 3-3.46 3s-3.22-1.3-3.46-3H4v2z"/></svg><svg width="26" height="26" viewBox="-1 -1 26 26" id="information" x="312" y="52" xmlns="http://www.w3.org/2000/svg"><path d="M11.5 3c5.25 0 9.5 4.25 9.5 9.5S16.75 22 11.5 22 2 17.75 2 12.5 6.25 3 11.5 3m0 1C6.81 4 3 7.81 3 12.5c0 4.69 3.81 8.5 8.5 8.5 4.69 0 8.5-3.81 8.5-8.5C20 7.81 16.19 4 11.5 4M11 8v2h1V8h-1m0 4v5h1v-5h-1z"/></svg><svg width="26" height="26" viewBox="-1 -1 26 26" id="label" x="312" y="78" xmlns="http://www.w3.org/2000/svg"><path d="M6 6h8c.97 0 1.83.46 2.38 1.18l4.16 5.32-4.16 5.32C15.83 18.54 14.97 19 14 19H6c-1.66 0-3-1.34-3-3V9c0-1.66 1.34-3 3-3m9.58 11.23l3.69-4.73-3.69-4.73C15.21 7.3 14.64 7 14 7H6c-1.1 0-2 .9-2 2v7c0 1.1.9 2 2 2h8c.64 0 1.21-.3 1.58-.77z"/></svg><svg width="26" height="26" viewBox="-1 -1 26 26" id="layers" x="312" y="104" xmlns="http://www.w3.org/2000/svg"><path d="M2.7 11l8.67-6.75 8.93 6.98L11.63 18 2.7 11m16 .21L11.39 5.5 4.32 11l7.31 5.73 7.07-5.52M11.63 21L2.7 14l.8-.6 8.11 6.35 7.89-6.16.8.64L11.63 21z"/></svg><svg width="26" height="26" viewBox="-1 -1 26 26" id="lightbulb" x="312" y="130" xmlns="http://www.w3.org/2000/svg"><path d="M14 20c0 1.1-.9 2-2 2h-1c-1.1 0-2-.9-2-2h1c0 .55.45 1 1 1h1c.55 0 1-.45 1-1h1m1-3c0 1.1-.9 2-2 2h-3c-1.1 0-2-.9-2-2v-2c-1.8-1.18-3-3.2-3-5.5a6.5 6.5 0 1 1 13 0c0 2.3-1.2 4.32-3 5.5v2m-6 0c0 .55.45 1 1 1h3c.55 0 1-.45 1-1v-2.6c1.78-.9 3-2.76 3-4.9C17 6.46 14.54 4 11.5 4S6 6.46 6 9.5c0 2.14 1.22 4 3 4.9V17z"/></svg><svg width="26" height="26" viewBox="-1 -1 26 26" id="lightbulb-on" x="312" y="156" xmlns="http://www.w3.org/2000/svg"><path d="M14 20c0 1.1-.9 2-2 2h-1c-1.1 0-2-.9-2-2h1c0 .55.45 1 1 1h1c.55 0 1-.45 1-1h1m1-3c0 1.1-.9 2-2 2h-3c-1.1 0-2-.9-2-2v-2c-1.8-1.18-3-3.2-3-5.5a6.5 6.5 0 1 1 13 0c0 2.3-1.2 4.32-3 5.5v2m-6 0c0 .55.45 1 1 1h3c.55 0 1-.45 1-1v-2.6c1.78-.9 3-2.76 3-4.9C17 6.46 14.54 4 11.5 4S6 6.46 6 9.5c0 2.14 1.22 4 3 4.9V17m-.87-6.88l2.37-2.37 2 2L14.25 8l.71.71-2.46 2.45-2-2-1.66 1.67-.71-.71z"/></svg><svg width="26" height="26" viewBox="-1 -1 26 26" id="link" x="312" y="182" xmlns="http://www.w3.org/2000/svg"><path d="M8 13v-1h7v1H8m7.5-6c3.04 0 5.5 2.46 5.5 5.5S18.54 18 15.5 18H13v-1h2.5c2.5 0 4.5-2 4.5-4.5S18 8 15.5 8H13V7h2.5m-8 11C4.46 18 2 15.54 2 12.5S4.46 7 7.5 7H10v1H7.5C5 8 3 10 3 12.5S5 17 7.5 17H10v1H7.5z"/></svg><svg width="26" height="26" viewBox="-1 -1 26 26" id="link-variant" x="312" y="208" xmlns="http://www.w3.org/2000/svg"><path d="M10.73 14.97c.27.11.36.41.24.66-.12.25-.41.37-.66.24h-.01c-.46-.21-.89-.51-1.27-.9a4.49 4.49 0 0 1 0-6.36l3.53-3.53a4.49 4.49 0 0 1 6.36 0 4.49 4.49 0 0 1 0 6.36l-1.63 1.63-.15-1.26 1.08-1.08a3.513 3.513 0 0 0 0-4.95 3.513 3.513 0 0 0-4.95 0L9.73 9.32a3.513 3.513 0 0 0 0 4.95c.3.3.64.53 1 .7m-6.65 4.95a4.49 4.49 0 0 1 0-6.36l1.63-1.63.15 1.26-1.08 1.08a3.513 3.513 0 0 0 0 4.95 3.513 3.513 0 0 0 4.95 0l3.54-3.54a3.513 3.513 0 0 0 0-4.95c-.3-.3-.64-.53-1-.7v.01a.488.488 0 0 1-.24-.67c.12-.25.41-.37.66-.24h.01c.46.21.89.51 1.27.9a4.49 4.49 0 0 1 0 6.36l-3.53 3.53a4.49 4.49 0 0 1-6.36 0z"/></svg><svg width="26" height="26" viewBox="-1 -1 26 26" id="lock" x="312" y="234" xmlns="http://www.w3.org/2000/svg"><path d="M16 8c1.66 0 3 1.34 3 3v8c0 1.66-1.34 3-3 3H7c-1.66 0-3-1.34-3-3v-8c0-1.66 1.34-3 3-3V6.5C7 4 9 2 11.5 2S16 4 16 6.5V8M7 9c-1.1 0-2 .9-2 2v8c0 1.1.9 2 2 2h9c1.1 0 2-.9 2-2v-8c0-1.1-.9-2-2-2H7m8-1V6.5C15 4.57 13.43 3 11.5 3S8 4.57 8 6.5V8h7m-3.5 6c-.83 0-1.5.67-1.5 1.5s.67 1.5 1.5 1.5 1.5-.67 1.5-1.5-.67-1.5-1.5-1.5m0-1a2.5 2.5 0 0 1 0 5 2.5 2.5 0 0 1 0-5z"/></svg><svg width="26" height="26" viewBox="-1 -1 26 26" id="lock-unlocked" x="312" y="260" xmlns="http://www.w3.org/2000/svg"><path d="M16 8c1.66 0 3 1.34 3 3v8c0 1.66-1.34 3-3 3H7c-1.66 0-3-1.34-3-3v-8c0-1.66 1.34-3 3-3h8V6.5C15 4.57 13.43 3 11.5 3 9.74 3 8.28 4.3 8.04 6H7.03c.25-2.25 2.15-4 4.47-4C14 2 16 4 16 6.5V8M7 9c-1.1 0-2 .9-2 2v8c0 1.1.9 2 2 2h9c1.1 0 2-.9 2-2v-8c0-1.1-.9-2-2-2H7m4.5 5c-.83 0-1.5.67-1.5 1.5s.67 1.5 1.5 1.5 1.5-.67 1.5-1.5-.67-1.5-1.5-1.5m0-1a2.5 2.5 0 0 1 0 5 2.5 2.5 0 0 1 0-5z"/></svg><svg width="26" height="26" viewBox="-1 -1 26 26" id="login" x="312" y="286" xmlns="http://www.w3.org/2000/svg"><path d="M15 3H9C7.34 3 6 4.34 6 6v4h1V6c0-1.1.9-2 2-2h6c1.1 0 2 .9 2 2v13c0 1.1-.9 2-2 2H9c-1.1 0-2-.9-2-2v-4H6v4c0 1.66 1.34 3 3 3h6c1.66 0 3-1.34 3-3V6c0-1.66-1.34-3-3-3M3 12h10.25L10 8.75l.66-.75 4.5 4.5-4.5 4.5-.66-.75L13.25 13H3v-1z"/></svg><svg width="26" height="26" viewBox="-1 -1 26 26" id="logout" y="312" xmlns="http://www.w3.org/2000/svg"><path d="M5 3h6c1.66 0 3 1.34 3 3v4h-1V6c0-1.1-.9-2-2-2H5c-1.1 0-2 .9-2 2v13c0 1.1.9 2 2 2h6c1.1 0 2-.9 2-2v-4h1v4c0 1.66-1.34 3-3 3H5c-1.66 0-3-1.34-3-3V6c0-1.66 1.34-3 3-3m3 9h11.25L16 8.75l.66-.75 4.5 4.5-4.5 4.5-.66-.75L19.25 13H8v-1z"/></svg><svg width="26" height="26" viewBox="-1 -1 26 26" id="magnify" x="26" y="312" xmlns="http://www.w3.org/2000/svg"><path d="M9.5 4a6.5 6.5 0 0 1 6.5 6.5c0 1.62-.59 3.1-1.57 4.23l5.65 5.65-.71.71-5.65-5.65A6.469 6.469 0 0 1 9.5 17a6.5 6.5 0 1 1 0-13m0 1C6.46 5 4 7.46 4 10.5S6.46 16 9.5 16s5.5-2.46 5.5-5.5S12.54 5 9.5 5z"/></svg><svg width="26" height="26" viewBox="-1 -1 26 26" id="magnify-minus" x="52" y="312" xmlns="http://www.w3.org/2000/svg"><path d="M9.5 4a6.5 6.5 0 0 1 6.5 6.5c0 1.62-.59 3.1-1.57 4.23l5.65 5.65-.71.71-5.65-5.65A6.469 6.469 0 0 1 9.5 17a6.5 6.5 0 1 1 0-13m0 1C6.46 5 4 7.46 4 10.5S6.46 16 9.5 16s5.5-2.46 5.5-5.5S12.54 5 9.5 5M7 10h5v1H7v-1z"/></svg><svg width="26" height="26" viewBox="-1 -1 26 26" id="magnify-plus" x="78" y="312" xmlns="http://www.w3.org/2000/svg"><path d="M9.5 4a6.5 6.5 0 0 1 6.5 6.5c0 1.62-.59 3.1-1.57 4.23l5.65 5.65-.71.71-5.65-5.65A6.469 6.469 0 0 1 9.5 17a6.5 6.5 0 1 1 0-13m0 1C6.46 5 4 7.46 4 10.5S6.46 16 9.5 16s5.5-2.46 5.5-5.5S12.54 5 9.5 5M7 10h2V8h1v2h2v1h-2v2H9v-2H7v-1z"/></svg><svg width="26" height="26" viewBox="-1 -1 26 26" id="map-marker" x="104" y="312" xmlns="http://www.w3.org/2000/svg"><path d="M11.5 7a2.5 2.5 0 0 1 0 5 2.5 2.5 0 0 1 0-5m0 1c-.83 0-1.5.67-1.5 1.5s.67 1.5 1.5 1.5 1.5-.67 1.5-1.5S12.33 8 11.5 8m-4.7 4.36l4.7 7.73 4.7-7.73c.51-.86.8-1.81.8-2.86C17 6.46 14.54 4 11.5 4S6 6.46 6 9.5c0 1.05.29 2 .8 2.86m10.25.52L11.5 22l-5.55-9.12a6.5 6.5 0 1 1 11.1 0z"/></svg><svg width="26" height="26" viewBox="-1 -1 26 26" id="memory" x="130" y="312" xmlns="http://www.w3.org/2000/svg"><path d="M8 19c-1.66 0-3-1.34-3-3v-1H3v-1h2v-3H3v-1h2V9c0-1.66 1.34-3 3-3h1V4h1v2h3V4h1v2h1c1.66 0 3 1.34 3 3v1h2v1h-2v3h2v1h-2v1c0 1.66-1.34 3-3 3h-1v2h-1v-2h-3v2H9v-2H8M8 7c-1.1 0-2 .9-2 2v7c0 1.1.9 2 2 2h7c1.1 0 2-.9 2-2V9c0-1.1-.9-2-2-2H8m1 8v-5h5v5H9m1-4v3h3v-3h-3z"/></svg><svg width="26" height="26" viewBox="-1 -1 26 26" id="menu" x="156" y="312" xmlns="http://www.w3.org/2000/svg"><path d="M3 8V7h17v1H3m17 4v1H3v-1h17M3 17h17v1H3v-1z"/></svg><svg width="26" height="26" viewBox="-1 -1 26 26" id="message" x="182" y="312" xmlns="http://www.w3.org/2000/svg"><path d="M3 20.59L6.59 17H18c1.1 0 2-.9 2-2V6c0-1.1-.9-2-2-2H5c-1.1 0-2 .9-2 2v14.59M3 22H2V6c0-1.66 1.34-3 3-3h13c1.66 0 3 1.34 3 3v9c0 1.66-1.34 3-3 3H7l-4 4z"/></svg><svg width="26" height="26" viewBox="-1 -1 26 26" id="message-alert" x="208" y="312" xmlns="http://www.w3.org/2000/svg"><path d="M3 20.59L6.59 17H18c1.1 0 2-.9 2-2V6c0-1.1-.9-2-2-2H5c-1.1 0-2 .9-2 2v14.59M3 22H2V6c0-1.66 1.34-3 3-3h13c1.66 0 3 1.34 3 3v9c0 1.66-1.34 3-3 3H7l-4 4m8-16h1v5h-1V6m1 9h-1v-2h1v2z"/></svg><svg width="26" height="26" viewBox="-1 -1 26 26" id="message-photo" x="234" y="312" xmlns="http://www.w3.org/2000/svg"><path d="M3 20.59L6.59 17H18c1.1 0 2-.9 2-2v-.09l-5.21-5.2-5 5-2.5-2.5L3 16.5v4.09M20 6c0-1.1-.9-2-2-2H5c-1.1 0-2 .9-2 2v9.09l4.29-4.3 2.5 2.5 5-5L20 13.5V6M3 22H2V6c0-1.66 1.34-3 3-3h13c1.66 0 3 1.34 3 3v9c0 1.66-1.34 3-3 3H7l-4 4M9 6c1.1 0 2 .9 2 2s-.9 2-2 2-2-.9-2-2 .9-2 2-2m0 1c-.55 0-1 .45-1 1s.45 1 1 1 1-.45 1-1-.45-1-1-1z"/></svg><svg width="26" height="26" viewBox="-1 -1 26 26" id="message-processing" x="260" y="312" xmlns="http://www.w3.org/2000/svg"><path d="M3 20.59L6.59 17H18c1.1 0 2-.9 2-2V6c0-1.1-.9-2-2-2H5c-1.1 0-2 .9-2 2v14.59M3 22H2V6c0-1.66 1.34-3 3-3h13c1.66 0 3 1.34 3 3v9c0 1.66-1.34 3-3 3H7l-4 4M6.5 9c.83 0 1.5.67 1.5 1.5S7.33 12 6.5 12 5 11.33 5 10.5 5.67 9 6.5 9m0 1c-.28 0-.5.22-.5.5s.22.5.5.5.5-.22.5-.5-.22-.5-.5-.5m5-1c.83 0 1.5.67 1.5 1.5s-.67 1.5-1.5 1.5-1.5-.67-1.5-1.5.67-1.5 1.5-1.5m0 1c-.28 0-.5.22-.5.5s.22.5.5.5.5-.22.5-.5-.22-.5-.5-.5m5-1c.83 0 1.5.67 1.5 1.5s-.67 1.5-1.5 1.5-1.5-.67-1.5-1.5.67-1.5 1.5-1.5m0 1c-.28 0-.5.22-.5.5s.22.5.5.5.5-.22.5-.5-.22-.5-.5-.5z"/></svg><svg width="26" height="26" viewBox="-1 -1 26 26" id="message-reply" x="286" y="312" xmlns="http://www.w3.org/2000/svg"><path d="M20 20.59L16.41 17H5c-1.1 0-2-.9-2-2V6c0-1.1.9-2 2-2h13c1.1 0 2 .9 2 2v14.59M20 22h1V6c0-1.66-1.34-3-3-3H5C3.34 3 2 4.34 2 6v9c0 1.66 1.34 3 3 3h11l4 4z"/></svg><svg width="26" height="26" viewBox="-1 -1 26 26" id="message-text" x="312" y="312" xmlns="http://www.w3.org/2000/svg"><path d="M3 20.59L6.59 17H18c1.1 0 2-.9 2-2V6c0-1.1-.9-2-2-2H5c-1.1 0-2 .9-2 2v14.59M3 22H2V6c0-1.66 1.34-3 3-3h13c1.66 0 3 1.34 3 3v9c0 1.66-1.34 3-3 3H7l-4 4M6 7h11v1H6V7m0 3h11v1H6v-1m0 3h8v1H6v-1z"/></svg><svg width="26" height="26" viewBox="-1 -1 26 26" id="message-video" x="338" xmlns="http://www.w3.org/2000/svg"><path d="M3 20.59L6.59 17H18c1.1 0 2-.9 2-2V6c0-1.1-.9-2-2-2H5c-1.1 0-2 .9-2 2v14.59M3 22H2V6c0-1.66 1.34-3 3-3h13c1.66 0 3 1.34 3 3v9c0 1.66-1.34 3-3 3H7l-4 4M17 7v7h-1l-2-2v2H6V7h8v2l2-2h1m-3 3.41v.18l2 2V8.41l-2 2M7 8v5h6V8H7z"/></svg><svg width="26" height="26" viewBox="-1 -1 26 26" id="microphone" x="338" y="26" xmlns="http://www.w3.org/2000/svg"><path d="M11 21v-3c-3.36-.27-6-3.08-6-6.5V11h1v.5c0 3.04 2.46 5.5 5.5 5.5s5.5-2.46 5.5-5.5V11h1v.5c0 3.42-2.64 6.23-6 6.5v3h-1m.5-18A2.5 2.5 0 0 1 14 5.5v6a2.5 2.5 0 0 1-5 0v-6A2.5 2.5 0 0 1 11.5 3m0 1c-.83 0-1.5.67-1.5 1.5v6c0 .83.67 1.5 1.5 1.5s1.5-.67 1.5-1.5v-6c0-.83-.67-1.5-1.5-1.5z"/></svg><svg width="26" height="26" viewBox="-1 -1 26 26" id="microphone-off" x="338" y="52" xmlns="http://www.w3.org/2000/svg"><path d="M2.79 4.46l.71-.71L15.26 15.5l.71.72 4.28 4.28-.71.71-4.35-4.36c-.92.65-2.01 1.04-3.19 1.15v3h-1v-3c-3.36-.27-6-3.08-6-6.5V11h1v.5c0 3.04 2.46 5.5 5.5 5.5 1.09 0 2.11-.32 2.97-.87l-2.24-2.24A2.5 2.5 0 0 1 9 11.5v-.84l-6.21-6.2M17 11.5V11h1v.5c0 1.5-.5 2.88-1.36 4l-.71-.74c.67-.91 1.07-2.04 1.07-3.26M11.5 3A2.5 2.5 0 0 1 14 5.5v6c0 .39-.09.76-.25 1.09l-.78-.79.03-.3v-6c0-.83-.67-1.5-1.5-1.5S10 4.67 10 5.5v3.34l-1-1V5.5A2.5 2.5 0 0 1 11.5 3M10 11.67c.09.69.64 1.24 1.33 1.33L10 11.67z"/></svg><svg width="26" height="26" viewBox="-1 -1 26 26" id="minus" x="338" y="78" xmlns="http://www.w3.org/2000/svg"><path d="M5 13v-1h13v1H5z"/></svg><svg width="26" height="26" viewBox="-1 -1 26 26" id="minus-box" x="338" y="104" xmlns="http://www.w3.org/2000/svg"><path d="M7 12h9v1H7v-1M6 4h11c1.66 0 3 1.34 3 3v11c0 1.66-1.34 3-3 3H6c-1.66 0-3-1.34-3-3V7c0-1.66 1.34-3 3-3m0 1c-1.1 0-2 .9-2 2v11c0 1.1.9 2 2 2h11c1.1 0 2-.9 2-2V7c0-1.1-.9-2-2-2H6z"/></svg><svg width="26" height="26" viewBox="-1 -1 26 26" id="minus-circle" x="338" y="130" xmlns="http://www.w3.org/2000/svg"><path d="M7 12h9v1H7v-1m4.5-9c5.25 0 9.5 4.25 9.5 9.5S16.75 22 11.5 22 2 17.75 2 12.5 6.25 3 11.5 3m0 1C6.81 4 3 7.81 3 12.5c0 4.69 3.81 8.5 8.5 8.5 4.69 0 8.5-3.81 8.5-8.5C20 7.81 16.19 4 11.5 4z"/></svg><svg width="26" height="26" viewBox="-1 -1 26 26" id="monitor" x="338" y="156" xmlns="http://www.w3.org/2000/svg"><path d="M5 4h13c1.66 0 3 1.34 3 3v7c0 1.66-1.34 3-3 3h-4.5l.5 3h1v1H8v-1h1l.5-3H5c-1.66 0-3-1.34-3-3V7c0-1.66 1.34-3 3-3m5.5 13l-.5 3h3l-.5-3h-2M5 5c-1.1 0-2 .9-2 2v7c0 1.1.9 2 2 2h13c1.1 0 2-.9 2-2V7c0-1.1-.9-2-2-2H5z"/></svg><svg width="26" height="26" viewBox="-1 -1 26 26" id="monitor-multiple" x="338" y="182" xmlns="http://www.w3.org/2000/svg"><path d="M6 5h13c1.66 0 3 1.34 3 3v7c0 1.66-1.34 3-3 3h-4.5l.5 3h1v1H9v-1h1l.5-3H6c-1.66 0-3-1.34-3-3V8c0-1.66 1.34-3 3-3m5.5 13l-.5 3h3l-.5-3h-2M6 6c-1.1 0-2 .9-2 2v7c0 1.1.9 2 2 2h13c1.1 0 2-.9 2-2V8c0-1.1-.9-2-2-2H6M1 8c0-2.76 2.24-5 5-5h12v1H6C3.79 4 2 5.79 2 8v6H1V8z"/></svg><svg width="26" height="26" viewBox="-1 -1 26 26" id="music" x="338" y="208" xmlns="http://www.w3.org/2000/svg"><path d="M8 6.1L19 5v11c0 1.66-1.34 3-3 3s-3-1.34-3-3 1.34-3 3-3c.77 0 1.47.29 2 .76V9.04l-9 1V17c0 1.66-1.34 3-3 3s-3-1.34-3-3 1.34-3 3-3c.77 0 1.47.29 2 .76V6.1M9 7v2.03l9-.99V6.09L9 7M8 17c0-1.1-.9-2-2-2s-2 .9-2 2 .9 2 2 2 2-.9 2-2m10-1c0-1.1-.9-2-2-2s-2 .9-2 2 .9 2 2 2 2-.9 2-2z"/></svg><svg width="26" height="26" viewBox="-1 -1 26 26" id="music-off" x="338" y="234" xmlns="http://www.w3.org/2000/svg"><path d="M2.79 4.46l.71-.71L20.25 20.5l-.71.71-2.42-2.43a2.996 2.996 0 0 1-3.9-3.9L9 10.66V17c0 1.66-1.34 3-3 3s-3-1.34-3-3 1.34-3 3-3c.77 0 1.47.29 2 .76v-5.1l-5.21-5.2M8 6.1L19 5v11c0 .53-.14 1.03-.38 1.46l-.75-.75a2.006 2.006 0 0 0-2.58-2.58l-.75-.75a3.006 3.006 0 0 1 3.46.38V9.04l-7 .78-.92-.91L18 8.04V6.09L9 7v.84l-1-1V6.1m6 9.9c0 1.1.9 2 2 2h.31L14 15.69V16m-6 1c0-1.1-.9-2-2-2s-2 .9-2 2 .9 2 2 2 2-.9 2-2z"/></svg><svg width="26" height="26" viewBox="-1 -1 26 26" id="nfc" x="338" y="260" xmlns="http://www.w3.org/2000/svg"><path d="M5 3h13c1.66 0 3 1.34 3 3v13c0 1.66-1.34 3-3 3H5c-1.66 0-3-1.34-3-3V6c0-1.66 1.34-3 3-3m0 1c-1.1 0-2 .9-2 2v13c0 1.1.9 2 2 2h13c1.1 0 2-.9 2-2V6c0-1.1-.9-2-2-2H5m8 8.5c0 .83-.67 1.5-1.5 1.5a1.498 1.498 0 0 1-.5-2.91V8c0-.55.45-1 1-1h4c.55 0 1 .45 1 1v9c0 .55-.45 1-1 1H7c-.55 0-1-.45-1-1V8c0-.55.45-1 1-1h2v1H7v9h9V8h-4v3.09c.58.2 1 .76 1 1.41m-1.5-.5c-.28 0-.5.22-.5.5s.22.5.5.5.5-.22.5-.5-.22-.5-.5-.5z"/></svg><svg width="26" height="26" viewBox="-1 -1 26 26" id="note" x="338" y="286" xmlns="http://www.w3.org/2000/svg"><path d="M16 12c-1.66 0-3-1.34-3-3V5H5c-1.1 0-2 .9-2 2v11c0 1.1.9 2 2 2h13c1.1 0 2-.9 2-2v-6h-4m-2-3c0 1.1.9 2 2 2h3.59L14 5.41V9M5 4h9l7 7v7c0 1.66-1.34 3-3 3H5c-1.66 0-3-1.34-3-3V7c0-1.66 1.34-3 3-3z"/></svg><svg width="26" height="26" viewBox="-1 -1 26 26" id="note-multiple" x="338" y="312" xmlns="http://www.w3.org/2000/svg"><path d="M17 12c-1.66 0-3-1.34-3-3V5H6c-1.1 0-2 .9-2 2v11c0 1.1.9 2 2 2h13c1.1 0 2-.9 2-2v-6h-4m-2-3c0 1.1.9 2 2 2h3.59L15 5.41V9M6 4h9l7 7v7c0 1.66-1.34 3-3 3H6c-1.66 0-3-1.34-3-3V7c0-1.66 1.34-3 3-3m0 19c-2.76 0-5-2.24-5-5V8h1v10c0 2.21 1.79 4 4 4h12v1H6z"/></svg><svg width="26" height="26" viewBox="-1 -1 26 26" id="note-plus" y="338" xmlns="http://www.w3.org/2000/svg"><path d="M16 12c-1.66 0-3-1.34-3-3V5H5c-1.1 0-2 .9-2 2v11c0 1.1.9 2 2 2h13c1.1 0 2-.9 2-2v-6h-4m-2-3c0 1.1.9 2 2 2h3.59L14 5.41V9M5 4h9l7 7v7c0 1.66-1.34 3-3 3H5c-1.66 0-3-1.34-3-3V7c0-1.66 1.34-3 3-3m2 14v-2H5v-1h2v-2h1v2h2v1H8v2H7z"/></svg><svg width="26" height="26" viewBox="-1 -1 26 26" id="note-text" x="26" y="338" xmlns="http://www.w3.org/2000/svg"><path d="M16 12c-1.66 0-3-1.34-3-3V5H5c-1.1 0-2 .9-2 2v11c0 1.1.9 2 2 2h13c1.1 0 2-.9 2-2v-6h-4m-2-3c0 1.1.9 2 2 2h3.59L14 5.41V9M5 4h9l7 7v7c0 1.66-1.34 3-3 3H5c-1.66 0-3-1.34-3-3V7c0-1.66 1.34-3 3-3m0 4h6v1H5V8m0 4h6v1H5v-1m0 4h13v1H5v-1z"/></svg><svg width="26" height="26" viewBox="-1 -1 26 26" id="paperclip" x="52" y="338" xmlns="http://www.w3.org/2000/svg"><path d="M17 7v10.5c0 3.04-2.46 5.5-5.5 5.5S6 20.54 6 17.5V6c0-2.21 1.79-4 4-4s4 1.79 4 4v10.5a2.5 2.5 0 0 1-5 0V7h1v9.5c0 .83.67 1.5 1.5 1.5s1.5-.67 1.5-1.5V6c0-1.66-1.34-3-3-3S7 4.34 7 6v11.5C7 20 9 22 11.5 22s4.5-2 4.5-4.5V7h1z"/></svg><svg width="26" height="26" viewBox="-1 -1 26 26" id="pause" x="78" y="338" xmlns="http://www.w3.org/2000/svg"><path d="M13 19V6h4v13h-4m-7 0V6h4v13H6M7 7v11h2V7H7m7 0v11h2V7h-2z"/></svg><svg width="26" height="26" viewBox="-1 -1 26 26" id="pencil" x="104" y="338" xmlns="http://www.w3.org/2000/svg"><path d="M19.71 8.04l-2.34 2.33-3.75-3.75 2.34-2.33c.39-.39 1.04-.39 1.41 0l2.34 2.34c.39.37.39 1.02 0 1.41M3 17.25L13.06 7.18l3.75 3.75L6.75 21H3v-3.75M16.62 5.04l-1.54 1.54 2.34 2.34 1.54-1.54-2.34-2.34M15.36 11L13 8.64l-9 9.02V20h2.34l9.02-9z"/></svg><svg width="26" height="26" viewBox="-1 -1 26 26" id="phone" x="130" y="338" xmlns="http://www.w3.org/2000/svg"><path d="M19.5 22c.83 0 1.5-.67 1.5-1.5V17c0-.83-.67-1.5-1.5-1.5-1.17 0-2.32-.18-3.42-.55a1.51 1.51 0 0 0-1.52.37l-1.44 1.44a14.772 14.772 0 0 1-5.89-5.89l1.43-1.43c.41-.39.56-.97.38-1.53-.36-1.09-.54-2.24-.54-3.41C8.5 3.67 7.83 3 7 3H3.5C2.67 3 2 3.67 2 4.5 2 14.15 9.85 22 19.5 22M3.5 4H7c.28 0 .5.22.5.5 0 1.28.2 2.53.59 3.72.05.14.04.34-.12.5L6 10.68c1.65 3.23 4.07 5.65 7.31 7.32l1.95-1.97c.14-.14.33-.18.51-.13 1.2.4 2.45.6 3.73.6.28 0 .5.22.5.5v3.5c0 .28-.22.5-.5.5C10.4 21 3 13.6 3 4.5c0-.28.22-.5.5-.5z"/></svg><svg width="26" height="26" viewBox="-1 -1 26 26" id="picture" x="156" y="338" xmlns="http://www.w3.org/2000/svg"><path d="M5 3h13c1.66 0 3 1.34 3 3v13c0 1.66-1.34 3-3 3H5c-1.66 0-3-1.34-3-3V6c0-1.66 1.34-3 3-3m0 1c-1.1 0-2 .9-2 2v11.59l4.29-4.3 2.5 2.5 5-5L20 16V6c0-1.1-.9-2-2-2H5m4.79 13.21l-2.5-2.5L3 19c0 1.1.9 2 2 2h13c1.1 0 2-.9 2-2v-1.59l-5.21-5.2-5 5M7.5 6a2.5 2.5 0 0 1 0 5 2.5 2.5 0 0 1 0-5m0 1C6.67 7 6 7.67 6 8.5S6.67 10 7.5 10 9 9.33 9 8.5 8.33 7 7.5 7z"/></svg><svg width="26" height="26" viewBox="-1 -1 26 26" id="pin" x="182" y="338" xmlns="http://www.w3.org/2000/svg"><path d="M14 12.41V5h1V4H8v1h1v7.41l-2 2V15h9v-.59l-2-2M17 14v2h-5v4.5l-.5 1.5-.5-1.5V16H6v-2l2-2V6H7V3h9v3h-1v6l2 2z"/></svg><svg width="26" height="26" viewBox="-1 -1 26 26" id="pin-off" x="208" y="338" xmlns="http://www.w3.org/2000/svg"><path d="M2.79 4.46l.71-.71L20.25 20.5l-.71.71L14.33 16H12v4.5l-.5 1.5-.5-1.5V16H6v-2l2-2V9.66l-5.21-5.2M14 12.41V5h1V4H8v1h1v2.84l-1-1V6h-.84L7 5.84V3h9v3h-1v6l2 2v1.83l-1-.99v-.43l-2-2m-5 0l-2 2V15h6.34L9 10.66v1.75z"/></svg><svg width="26" height="26" viewBox="-1 -1 26 26" id="play" x="234" y="338" xmlns="http://www.w3.org/2000/svg"><path d="M18.4 12.5L9 18.38 8 19V6l10.4 6.5m-1.9 0L9 7.8v9.4l7.5-4.7z"/></svg><svg width="26" height="26" viewBox="-1 -1 26 26" id="plus" x="260" y="338" xmlns="http://www.w3.org/2000/svg"><path d="M5 13v-1h6V6h1v6h6v1h-6v6h-1v-6H5z"/></svg><svg width="26" height="26" viewBox="-1 -1 26 26" id="plus-box" x="286" y="338" xmlns="http://www.w3.org/2000/svg"><path d="M7 12h4V8h1v4h4v1h-4v4h-1v-4H7v-1M6 4h11c1.66 0 3 1.34 3 3v11c0 1.66-1.34 3-3 3H6c-1.66 0-3-1.34-3-3V7c0-1.66 1.34-3 3-3m0 1c-1.1 0-2 .9-2 2v11c0 1.1.9 2 2 2h11c1.1 0 2-.9 2-2V7c0-1.1-.9-2-2-2H6z"/></svg><svg width="26" height="26" viewBox="-1 -1 26 26" id="plus-circle" x="312" y="338" xmlns="http://www.w3.org/2000/svg"><path d="M7 12h4V8h1v4h4v1h-4v4h-1v-4H7v-1m4.5-9c5.25 0 9.5 4.25 9.5 9.5S16.75 22 11.5 22 2 17.75 2 12.5 6.25 3 11.5 3m0 1C6.81 4 3 7.81 3 12.5c0 4.69 3.81 8.5 8.5 8.5 4.69 0 8.5-3.81 8.5-8.5C20 7.81 16.19 4 11.5 4z"/></svg><svg width="26" height="26" viewBox="-1 -1 26 26" id="power" x="338" y="338" xmlns="http://www.w3.org/2000/svg"><path d="M11 13V4h1v9h-1m8-.5c0 4.14-3.36 7.5-7.5 7.5C7.36 20 4 16.64 4 12.5c0-2.71 1.44-5.09 3.6-6.4l.73.73A6.478 6.478 0 0 0 5 12.5a6.5 6.5 0 1 0 13 0c0-2.44-1.34-4.56-3.33-5.67l.73-.73a7.476 7.476 0 0 1 3.6 6.4z"/></svg><svg width="26" height="26" viewBox="-1 -1 26 26" id="presentation" x="364" xmlns="http://www.w3.org/2000/svg"><path d="M2 4h8c0-.55.45-1 1-1h1c.55 0 1 .45 1 1h8v1h-1v11h-5.73l1.61 6h-1.04l-1.61-6H9.77l-1.61 6H7.12l1.61-6H3V5H2V4m17 11V5H4v10h15z"/></svg><svg width="26" height="26" viewBox="-1 -1 26 26" id="presentation-play" x="364" y="26" xmlns="http://www.w3.org/2000/svg"><path d="M2 4h8c0-.55.45-1 1-1h1c.55 0 1 .45 1 1h8v1h-1v11h-5.73l1.61 6h-1.04l-1.61-6H9.77l-1.61 6H7.12l1.61-6H3V5H2V4m17 11V5H4v10h15m-9-8h1l3 3-3 3h-1V7m1 1.41v3.18L12.59 10 11 8.41z"/></svg><svg width="26" height="26" viewBox="-1 -1 26 26" id="printer" x="364" y="52" xmlns="http://www.w3.org/2000/svg"><path d="M17 4v5h1c1.66 0 3 1.34 3 3v5h-4v4H6v-4H2v-5c0-1.66 1.34-3 3-3h1V4h11m1 9c-.55 0-1-.45-1-1s.45-1 1-1 1 .45 1 1-.45 1-1 1M3 12v4h3v-2h11v2h3v-4c0-1.1-.9-2-2-2H5c-1.1 0-2 .9-2 2m13 8v-5H7v5h9M7 5v4h9V5H7z"/></svg><svg width="26" height="26" viewBox="-1 -1 26 26" id="redo-variant" x="364" y="78" xmlns="http://www.w3.org/2000/svg"><path d="M17 20v-1h-1v1h1M10 8c-3.31 0-6 2.69-6 6s2.69 6 6 6h4v-1h-4c-2.76 0-5-2.24-5-5s2.24-5 5-5h7.09l-3.04 3.04.71.7L19 8.5l-4.24-4.24-.71.7L17.09 8H10z"/></svg><svg width="26" height="26" viewBox="-1 -1 26 26" id="refresh" x="364" y="104" xmlns="http://www.w3.org/2000/svg"><path d="M5 5h5v5H9V6.5c-2.35.97-4 3.29-4 6a6.5 6.5 0 1 0 13 0c0-3.08-2.14-5.66-5-6.33V5.14c3.42.7 6 3.72 6 7.36 0 4.13-3.36 7.5-7.5 7.5C7.36 20 4 16.64 4 12.5 4 9.72 5.5 7.3 7.74 6H5V5z"/></svg><svg width="26" height="26" viewBox="-1 -1 26 26" id="repeat" x="364" y="130" xmlns="http://www.w3.org/2000/svg"><path d="M20 7.5l-3.54 3.54-.7-.71L18.09 8H6v4H5V7h13.09l-2.33-2.33.7-.71L20 7.5M17 17v-4h1v5H4.91l2.33 2.33-.7.71L3 17.5l3.54-3.54.7.71L4.91 17H17z"/></svg><svg width="26" height="26" viewBox="-1 -1 26 26" id="repeat-off" x="364" y="156" xmlns="http://www.w3.org/2000/svg"><path d="M2.79 4.46l.71-.71L20.25 20.5l-.71.71-3.2-3.21H4.91l2.33 2.33-.7.71L3 17.5l3.54-3.54.7.71L4.91 17h10.43l-9-9H6v4H5V7h.34L2.79 4.46M20 7.5l-3.54 3.54-.7-.71L18.09 8H9.16l-1-1h9.93l-2.33-2.33.7-.71L20 7.5M17 13h1v3.84l-1-1V13z"/></svg><svg width="26" height="26" viewBox="-1 -1 26 26" id="repeat-once" x="364" y="182" xmlns="http://www.w3.org/2000/svg"><path d="M20 7.5l-3.54 3.54-.7-.71L18.09 8H6v4H5V7h13.09l-2.33-2.33.7-.71L20 7.5M17 17v-4h1v5H4.91l2.33 2.33-.7.71L3 17.5l3.54-3.54.7.71L4.91 17H17m-7-3h1v-3h-1v-1h2v4h1v1h-3v-1z"/></svg><svg width="26" height="26" viewBox="-1 -1 26 26" id="rewind" x="364" y="208" xmlns="http://www.w3.org/2000/svg"><path d="M1 12.5l9.4 5.88 1 .62v-5.62l8 5 1 .62V6l-9 5.62V6L1 12.5m1.89 0l7.51-4.7v9.4l-7.51-4.7m9 0l7.51-4.7v9.4l-7.51-4.7z"/></svg><svg width="26" height="26" viewBox="-1 -1 26 26" id="rss" x="364" y="234" xmlns="http://www.w3.org/2000/svg"><path d="M5 16c1.66 0 3 1.34 3 3s-1.34 3-3 3-3-1.34-3-3 1.34-3 3-3m0 1c-1.1 0-2 .9-2 2s.9 2 2 2 2-.9 2-2-.9-2-2-2m-3-6c6.08 0 11 4.92 11 11h-1c0-5.52-4.48-10-10-10v-1m0-4c8.28 0 15 6.72 15 15h-1C16 14.27 9.73 8 2 8V7m0-4c10.5 0 19 8.5 19 19h-1c0-9.94-8.06-18-18-18V3z"/></svg><svg width="26" height="26" viewBox="-1 -1 26 26" id="script" x="364" y="260" xmlns="http://www.w3.org/2000/svg"><path d="M3 19c0 1.1.9 2 2 2h6.76c-.47-.53-.76-1.23-.76-2H3m11 2c1.1 0 2-.9 2-2V6c0-.77.29-1.47.76-2H8c-1.1 0-2 .9-2 2v12h6v1c0 1.1.9 2 2 2M5 6c0-1.66 1.34-3 3-3h11c1.66 0 3 1.34 3 3v2h-5v11c0 1.66-1.34 3-3 3H5c-1.66 0-3-1.34-3-3v-1h3V6m16 1V6c0-1.1-.9-2-2-2s-2 .9-2 2v1h4z"/></svg><svg width="26" height="26" viewBox="-1 -1 26 26" id="seek-next" x="364" y="286" xmlns="http://www.w3.org/2000/svg"><path d="M15.4 12.5L5 6v13l1-.62 9.4-5.88m-1.9 0L6 17.2V7.8l7.5 4.7M18 6h-1v13h1V6z"/></svg><svg width="26" height="26" viewBox="-1 -1 26 26" id="seek-previous" x="364" y="312" xmlns="http://www.w3.org/2000/svg"><path d="M7.6 12.5L18 6v13l-1-.62-9.4-5.88m1.9 0l7.5 4.7V7.8l-7.5 4.7M5 6h1v13H5V6z"/></svg><svg width="26" height="26" viewBox="-1 -1 26 26" id="settings" x="364" y="338" xmlns="http://www.w3.org/2000/svg"><path d="M19.59 15.5l-1.82-1.3c.3-1.08.32-2.25 0-3.42l1.82-1.28L18.14 7l-2.03.92c-.79-.8-1.79-1.42-2.96-1.71L12.95 4h-2.9l-.2 2.21c-1.17.29-2.17.91-2.96 1.71L4.86 7 3.41 9.5l1.82 1.28c-.32 1.17-.3 2.34 0 3.42l-1.82 1.3L4.86 18l2.03-.93c.79.79 1.79 1.39 2.96 1.7l.2 2.23h2.9l.2-2.23c1.17-.31 2.17-.91 2.96-1.7l2.03.93 1.45-2.5M13.5 3c.27 0 .5.2.5.46l.18 2.04c.76.28 1.44.69 2.05 1.18l1.85-.87c.23-.12.52-.04.66.19l2 3.5c.14.21.06.5-.16.65l-1.67 1.17c.13.8.12 1.59 0 2.36l1.67 1.17c.22.15.3.44.16.65l-2 3.5c-.14.21-.43.29-.66.17l-1.85-.86c-.61.49-1.29.89-2.05 1.19l-.18 2c0 .29-.23.5-.5.5h-4c-.28 0-.5-.22-.5-.5l-.18-2c-.76-.3-1.44-.7-2.05-1.19l-1.85.86c-.23.12-.52.04-.66-.17l-2-3.5c-.14-.21-.06-.5.16-.65l1.67-1.17c-.12-.77-.13-1.56 0-2.36l-1.67-1.17c-.22-.15-.3-.44-.16-.65l2-3.5c.14-.23.43-.31.66-.19l1.85.87c.61-.49 1.29-.9 2.05-1.18L9 3.46c0-.26.23-.46.5-.46h4m-2 6c1.93 0 3.5 1.57 3.5 3.5S13.43 16 11.5 16 8 14.43 8 12.5 9.57 9 11.5 9m0 1a2.5 2.5 0 0 0 0 5 2.5 2.5 0 0 0 0-5z"/></svg><svg width="26" height="26" viewBox="-1 -1 26 26" id="shape-circle" y="364" xmlns="http://www.w3.org/2000/svg"><path d="M11.5 3c5.25 0 9.5 4.25 9.5 9.5S16.75 22 11.5 22 2 17.75 2 12.5 6.25 3 11.5 3m0 1C6.81 4 3 7.81 3 12.5c0 4.69 3.81 8.5 8.5 8.5 4.69 0 8.5-3.81 8.5-8.5C20 7.81 16.19 4 11.5 4z"/></svg><svg width="26" height="26" viewBox="-1 -1 26 26" id="shape-hexagon" x="26" y="364" xmlns="http://www.w3.org/2000/svg"><path d="M6.59 21l-4.9-8.5L6.6 4h9.81l4.91 8.5-4.91 8.5H6.59m9.24-16H7.18l-4.34 7.5L7.17 20h8.66l4.33-7.5L15.83 5z"/></svg><svg width="26" height="26" viewBox="-1 -1 26 26" id="shape-octagon" x="52" y="364" xmlns="http://www.w3.org/2000/svg"><path d="M3 16V9l5-5h7l5 5v7.03L15.03 21H8l-5-5M8.39 5L4 9.39v6.21L8.4 20h6.21L19 15.61V9.39L14.61 5H8.39z"/></svg><svg width="26" height="26" viewBox="-1 -1 26 26" id="shape-rhombus" x="78" y="364" xmlns="http://www.w3.org/2000/svg"><path d="M2.59 12.5l8.91-8.91 8.91 8.91-8.91 8.91-8.91-8.91M11.5 5L4 12.5l7.5 7.5 7.5-7.5L11.5 5z"/></svg><svg width="26" height="26" viewBox="-1 -1 26 26" id="shape-square" x="104" y="364" xmlns="http://www.w3.org/2000/svg"><path d="M3 4h17v17H3V4m1 1v15h15V5H4z"/></svg><svg width="26" height="26" viewBox="-1 -1 26 26" id="shape-triangle" x="130" y="364" xmlns="http://www.w3.org/2000/svg"><path d="M1 21L11.5 2.81 22 21H1m19.27-1L11.5 4.81 2.73 20h17.54z"/></svg><svg width="26" height="26" viewBox="-1 -1 26 26" id="shield" x="156" y="364" xmlns="http://www.w3.org/2000/svg"><path d="M11.5 3.11L19 6.63v5.01c0 4.81-3.22 9.26-7.5 10.4C7.22 20.9 4 16.45 4 11.64V6.63m7.5 16.44c4.9-1.23 8.5-6.13 8.5-11.43V6l-8.5-4L3 6v5.64c0 5.3 3.6 10.2 8.5 11.43z"/></svg><svg width="26" height="26" viewBox="-1 -1 26 26" id="shuffle" x="182" y="364" xmlns="http://www.w3.org/2000/svg"><path d="M13 5h6v6h-1V6.71L4.71 20 4 19.29 17.29 6H13V5m0 14h4.29l-4.58-4.59.7-.7L18 18.29V14h1v6h-6v-1M4 5.71L4.71 5l5.58 5.59-.7.7L4 5.71z"/></svg><svg width="26" height="26" viewBox="-1 -1 26 26" id="signal" x="208" y="364" xmlns="http://www.w3.org/2000/svg"><path d="M2 21v-5h4v5H2m1-4v3h2v-3H3m4 4v-9h4v9H7m1-8v7h2v-7H8m4 8V8h4v13h-4m1-12v11h2V9h-2m4 12V4h4v17h-4m1-16v15h2V5h-2z"/></svg><svg width="26" height="26" viewBox="-1 -1 26 26" id="sitemap" x="234" y="364" xmlns="http://www.w3.org/2000/svg"><path d="M9 3h5v5h-2v4h5c1.66 0 3 1.34 3 3v2h2v5h-5v-5h2v-2c0-1.1-.9-2-2-2h-5v4h2v5H9v-5h2v-4H6c-1.1 0-2 .9-2 2v2h2v5H1v-5h2v-2c0-1.66 1.34-3 3-3h5V8H9V3m4 4V4h-3v3h3M5 21v-3H2v3h3m8 0v-3h-3v3h3m8 0v-3h-3v3h3z"/></svg><svg width="26" height="26" viewBox="-1 -1 26 26" id="sleep" x="260" y="364" xmlns="http://www.w3.org/2000/svg"><path d="M2 13h5v1l-3.74 5H7v1H2v-1l3.75-5H2v-1m7-4h5v1l-3.74 5H14v1H9v-1l3.75-5H9V9m7-4h5v1l-3.74 5H21v1h-5v-1l3.75-5H16V5z"/></svg><svg width="26" height="26" viewBox="-1 -1 26 26" id="sleep-off" x="286" y="364" xmlns="http://www.w3.org/2000/svg"><path d="M2.79 4.46l.71-.71L20.25 20.5l-.71.71L14 15.66V16H9v-1l1.86-2.5-8.07-8.04M2 13h5v1l-3.74 5H7v1H2v-1l3.75-5H2v-1m12-4v1l-1.21 1.62-.72-.71.68-.91h-1.59l-1-1H14m-3.74 6h3.08l-1.76-1.76L10.26 15M16 5h5v1l-3.74 5H21v1h-5v-1l3.75-5H16V5z"/></svg><svg width="26" height="26" viewBox="-1 -1 26 26" id="spellcheck" x="312" y="364" xmlns="http://www.w3.org/2000/svg"><path d="M8.5 17.5l.71-.71 3.5 3.5 7.79-7.79.71.71-8.5 8.5L8.5 17.5M4.71 13L3.5 16h-1L7.35 4h1.4l4.85 12h-1l-1.21-3H4.71m.41-1H11L8.05 4.74 5.12 12z"/></svg><svg width="26" height="26" viewBox="-1 -1 26 26" id="star" x="338" y="364" xmlns="http://www.w3.org/2000/svg"><path d="M12.86 10.44L11 6.06l-1.86 4.39-4.75.41L8 14l-1.08 4.63L11 16.17l4.09 2.46L14 14l3.61-3.14-4.75-.42m3.73 10.26L11 17.34 5.42 20.7l1.46-6.35-4.92-4.28 6.49-.57 2.55-6 2.55 6 6.49.57-4.92 4.27 1.47 6.36z"/></svg><svg width="26" height="26" viewBox="-1 -1 26 26" id="star-half" x="364" y="364" xmlns="http://www.w3.org/2000/svg"><path d="M11 6.06l-1.86 4.39-4.75.41L8 14l-1.08 4.63L11 16.18v1.16L5.42 20.7l1.46-6.35-4.92-4.28 6.49-.57 2.55-6v2.56z"/></svg><svg width="26" height="26" viewBox="-1 -1 26 26" id="stop" x="390" xmlns="http://www.w3.org/2000/svg"><path d="M17 18H6V7h11v11M7 8v9h9V8H7z"/></svg><svg width="26" height="26" viewBox="-1 -1 26 26" id="tab" x="390" y="26" xmlns="http://www.w3.org/2000/svg"><path d="M6 4h11c1.66 0 3 1.34 3 3v11c0 1.66-1.34 3-3 3H6c-1.66 0-3-1.34-3-3V7c0-1.66 1.34-3 3-3m0 1c-1.1 0-2 .9-2 2v11c0 1.1.9 2 2 2h11c1.1 0 2-.9 2-2v-8h-8V5H6m13 2c0-1.1-.9-2-2-2h-5v4h7V7z"/></svg><svg width="26" height="26" viewBox="-1 -1 26 26" id="tab-plus" x="390" y="52" xmlns="http://www.w3.org/2000/svg"><path d="M6 4h11c1.66 0 3 1.34 3 3v11c0 1.66-1.34 3-3 3H6c-1.66 0-3-1.34-3-3V7c0-1.66 1.34-3 3-3m0 1c-1.1 0-2 .9-2 2v11c0 1.1.9 2 2 2h11c1.1 0 2-.9 2-2v-8h-8V5H6m13 2c0-1.1-.9-2-2-2h-5v4h7V7M8 18v-2H6v-1h2v-2h1v2h2v1H9v2H8z"/></svg><svg width="26" height="26" viewBox="-1 -1 26 26" id="table" x="390" y="78" xmlns="http://www.w3.org/2000/svg"><path d="M6 5h11c1.66 0 3 1.34 3 3v9c0 1.66-1.34 3-3 3H6c-1.66 0-3-1.34-3-3V8c0-1.66 1.34-3 3-3M4 17c0 1.1.9 2 2 2h5v-3H4v1m7-5H4v3h7v-3m6 7c1.1 0 2-.9 2-2v-1h-7v3h5m2-7h-7v3h7v-3M4 11h7V8H4v3m8 0h7V8h-7v3z"/></svg><svg width="26" height="26" viewBox="-1 -1 26 26" id="taco" x="390" y="104" xmlns="http://www.w3.org/2000/svg"><path d="M3.5 18A2.5 2.5 0 0 1 1 15.5C1 11.36 4.81 8 9.5 8c.69 0 1.36.07 2 .21.64-.14 1.31-.21 2-.21 4.69 0 8.5 3.36 8.5 7.5a2.5 2.5 0 0 1-2.5 2.5h-16M2 15.5c0 .83.67 1.5 1.5 1.5S5 16.33 5 15.5c0-2.78 1.71-5.2 4.25-6.5C5.22 9.12 2 12 2 15.5M19.5 17c.83 0 1.5-.67 1.5-1.5 0-3.59-3.36-6.5-7.5-6.5C9.36 9 6 11.91 6 15.5c0 .56-.19 1.08-.5 1.5h14z"/></svg><svg width="26" height="26" viewBox="-1 -1 26 26" id="tag" x="390" y="130" xmlns="http://www.w3.org/2000/svg"><path d="M15.62 21.12a3 3 0 0 1-4.24 0L3.05 13C2.45 12.45 2 11.63 2 10.75V6c0-1.66 1.34-3 3-3h4.75c.88 0 1.7.45 2.25 1.05l8.07 8.38a3 3 0 0 1 0 4.24l-4.45 4.45m-.71-.71l4.45-4.45c.78-.78.78-2.05 0-2.83l-8.25-8.55C10.78 4.2 10.3 4 9.75 4l-4.78-.03C3.87 3.97 3 4.9 3 6v4.75c0 .55.2 1.03.58 1.36l8.5 8.3c.78.78 2.05.78 2.83 0M6.5 5a2.5 2.5 0 0 1 0 5 2.5 2.5 0 0 1 0-5m0 1C5.67 6 5 6.67 5 7.5S5.67 9 6.5 9 8 8.33 8 7.5 7.33 6 6.5 6z"/></svg><svg width="26" height="26" viewBox="-1 -1 26 26" id="television" x="390" y="156" xmlns="http://www.w3.org/2000/svg"><path d="M8 21v-1h1v-1H4c-1.66 0-3-1.34-3-3V7c0-1.66 1.34-3 3-3h15c1.66 0 3 1.34 3 3v9c0 1.66-1.34 3-3 3h-5v1h1v1H8m2-2v1h3v-1h-3M4 5c-1.1 0-2 .9-2 2v9c0 1.1.9 2 2 2h15c1.1 0 2-.9 2-2V7c0-1.1-.9-2-2-2H4z"/></svg><svg width="26" height="26" viewBox="-1 -1 26 26" id="thumb-down" x="390" y="182" xmlns="http://www.w3.org/2000/svg"><path d="M21 15h-3c-.55 0-1-.45-1-1V5c0-.55.45-1 1-1h3c.55 0 1 .45 1 1v9c0 .55-.45 1-1 1m0-1V5h-3v9h3M5.28 5.97l-3 5c-.18.3-.28.66-.28 1.03v1c0 1.1.9 2 2 2h5.61l-1.46 5.44v.02c-.09.33-.01.7.26.96l6.01-6-.01-.01c.37-.36.59-.86.59-1.41V7c0-1.1-.9-2-2-2H7c-.73 0-1.37.39-1.72.97M1 12c0-.59.17-1.15.47-1.61l2.91-4.84C4.89 4.62 5.87 4 7 4h6c1.66 0 3 1.34 3 3v7c0 .83-.33 1.58-.88 2.12l-6.71 6.72-.71-.71c-.53-.53-.7-1.29-.51-1.97L8.31 16H4c-1.66 0-3-1.34-3-3v-1z"/></svg><svg width="26" height="26" viewBox="-1 -1 26 26" id="thumb-up" x="390" y="208" xmlns="http://www.w3.org/2000/svg"><path d="M2 10h3c.55 0 1 .45 1 1v9c0 .55-.45 1-1 1H2c-.55 0-1-.45-1-1v-9c0-.55.45-1 1-1m0 1v9h3v-9H2m15.72 8.03l3-5c.18-.3.28-.66.28-1.03v-1c0-1.1-.9-2-2-2h-5.61l1.46-5.44v-.02a.97.97 0 0 0-.26-.96l-6 6.01C8.22 9.95 8 10.45 8 11v7c0 1.1.9 2 2 2h6c.73 0 1.37-.39 1.72-.97M22 13c0 .59-.17 1.15-.47 1.61l-2.91 4.84C18.11 20.38 17.13 21 16 21h-6c-1.66 0-3-1.34-3-3v-7c0-.83.34-1.58.88-2.12l6.71-6.72.71.71c.53.53.7 1.29.51 1.97L14.69 9H19c1.66 0 3 1.34 3 3v1z"/></svg><svg width="26" height="26" viewBox="-1 -1 26 26" id="thumbs-up-down" x="390" y="234" xmlns="http://www.w3.org/2000/svg"><path d="M10.9 8.43L11 8c0-.55-.45-1-1-1H4.93l.92-3.44v-.02a.97.97 0 0 0-.26-.96l-4 4.01C1.22 6.95 1 7.45 1 8v4c0 1.1.9 2 2 2h4c.8 0 1.5-.47 1.81-1.14H8.8l2.1-4.43M7 15H3c-1.66 0-3-1.34-3-3V8c0-.83.34-1.58.88-2.12l4.71-4.72.71.71c.53.53.7 1.29.51 1.97L6.23 6H10a2.006 2.006 0 0 1 1.77 2.94l-2.01 4.23A3 3 0 0 1 7 15m5.1 1.57L12 17c0 .55.45 1 1 1h5.07l-.92 3.44v.02c-.09.33-.01.7.26.96l4.01-4.01h-.01c.37-.36.59-.86.59-1.41v-4c0-1.1-.9-2-2-2h-4c-.8 0-1.5.47-1.81 1.14h.01l-2.1 4.43M16 10h4c1.66 0 3 1.34 3 3v4c0 .83-.33 1.58-.88 2.12l-4.71 4.72-.71-.71c-.53-.53-.7-1.29-.51-1.97l.58-2.16H13c-1.1 0-2-.9-2-2 0-.34.09-.66.23-.94l2.01-4.23A3 3 0 0 1 16 10z"/></svg><svg width="26" height="26" viewBox="-1 -1 26 26" id="tooltip" x="390" y="260" xmlns="http://www.w3.org/2000/svg"><path d="M5 4h13c1.66 0 3 1.34 3 3v9c0 1.66-1.34 3-3 3h-3.5l-3 3-3-3H5c-1.66 0-3-1.34-3-3V7c0-1.66 1.34-3 3-3m0 1c-1.1 0-2 .9-2 2v9c0 1.1.9 2 2 2h3.91l2.59 2.59L14.09 18H18c1.1 0 2-.9 2-2V7c0-1.1-.9-2-2-2H5z"/></svg><svg width="26" height="26" viewBox="-1 -1 26 26" id="tooltip-text" x="390" y="286" xmlns="http://www.w3.org/2000/svg"><path d="M5 4h13c1.66 0 3 1.34 3 3v9c0 1.66-1.34 3-3 3h-3.5l-3 3-3-3H5c-1.66 0-3-1.34-3-3V7c0-1.66 1.34-3 3-3m0 1c-1.1 0-2 .9-2 2v9c0 1.1.9 2 2 2h3.91l2.59 2.59L14.09 18H18c1.1 0 2-.9 2-2V7c0-1.1-.9-2-2-2H5m0 3h13v1H5V8m0 3h12v1H5v-1m0 3h8v1H5v-1z"/></svg><svg width="26" height="26" viewBox="-1 -1 26 26" id="trophy" x="390" y="312" xmlns="http://www.w3.org/2000/svg"><path d="M7 22c0-2.21 1.79-4 4-4v-1a5 5 0 0 1-4.9-4H5c-1.66 0-3-1.34-3-3V5h2c.77 0 1.47.29 2 .76V3h11v2.76c.53-.47 1.23-.76 2-.76h2v5c0 1.66-1.34 3-3 3h-1.1a5 5 0 0 1-4.9 4v1c2.21 0 4 1.79 4 4H7m5-3h-1c-1.31 0-2.42.83-2.83 2h6.66A2.99 2.99 0 0 0 12 19m4-15H7v8c0 2.21 1.79 4 4 4h1c2.21 0 4-1.79 4-4V4m4 6V6h-1c-1.1 0-2 .9-2 2v4h1c1.1 0 2-.9 2-2M3 10c0 1.1.9 2 2 2h1V8c0-1.1-.9-2-2-2H3v4z"/></svg><svg width="26" height="26" viewBox="-1 -1 26 26" id="undo-variant" x="390" y="338" xmlns="http://www.w3.org/2000/svg"><path d="M6 20v-1h1v1H6m7-12c3.31 0 6 2.69 6 6s-2.69 6-6 6H9v-1h4c2.76 0 5-2.24 5-5s-2.24-5-5-5H5.91l3.04 3.04-.71.7L4 8.5l4.24-4.24.71.7L5.91 8H13z"/></svg><svg width="26" height="26" viewBox="-1 -1 26 26" id="unfold-less-horizontal" x="390" y="364" xmlns="http://www.w3.org/2000/svg"><path d="M15.74 5.29L11.5 9.54 7.26 5.29l.7-.7 3.54 3.53 3.54-3.53.7.7m0 14.42l-.7.7-3.54-3.53-3.54 3.53-.7-.7 4.24-4.25 4.24 4.25z"/></svg><svg width="26" height="26" viewBox="-1 -1 26 26" id="unfold-less-vertical" y="390" xmlns="http://www.w3.org/2000/svg"><path d="M18.71 16.74l-4.25-4.24 4.25-4.24.7.7-3.53 3.54 3.53 3.54-.7.7m-14.42 0l-.7-.7 3.53-3.54-3.53-3.54.7-.7 4.25 4.24-4.25 4.24z"/></svg><svg width="26" height="26" viewBox="-1 -1 26 26" id="unfold-more-horizontal" x="26" y="390" xmlns="http://www.w3.org/2000/svg"><path d="M15.74 8.83l-.7.71L11.5 6 7.96 9.54l-.7-.71 4.24-4.24 4.24 4.24m0 7.34l-4.24 4.24-4.24-4.24.7-.71L11.5 19l3.54-3.54.7.71z"/></svg><svg width="26" height="26" viewBox="-1 -1 26 26" id="unfold-more-vertical" x="52" y="390" xmlns="http://www.w3.org/2000/svg"><path d="M15.17 16.74l-.71-.7L18 12.5l-3.54-3.54.71-.7 4.24 4.24-4.24 4.24m-7.34 0L3.59 12.5l4.24-4.24.71.7L5 12.5l3.54 3.54-.71.7z"/></svg><svg width="26" height="26" viewBox="-1 -1 26 26" id="ungroup" x="78" y="390" xmlns="http://www.w3.org/2000/svg"><path d="M2 3h3v1h8V3h3v3h-1v4h3V9h3v3h-1v7h1v3h-3v-1h-7v1H8v-3h1v-3H5v1H2v-3h1V6H2V3m16 9v-1h-3v3h1v3h-3v-1h-3v3h1v1h7v-1h1v-7h-1m-5-6V5H5v1H4v8h1v1h4v-3H8V9h3v1h3V6h-1m-2 6h-1v3h3v-1h1v-3h-3v1M3 5h1V4H3v1m11 0h1V4h-1v1m-5 6h1v-1H9v1m10 0h1v-1h-1v1M9 21h1v-1H9v1m10 0h1v-1h-1v1M3 16h1v-1H3v1m11 0h1v-1h-1v1z"/></svg><svg width="26" height="26" viewBox="-1 -1 26 26" id="upload" x="104" y="390" xmlns="http://www.w3.org/2000/svg"><path d="M12 18.16V5.91l5.25 5.25.75-.66L11.5 4 5 10.5l.75.66L11 5.91v12.25h1M3 19h1v2h15v-2h1v3H3v-3z"/></svg><svg width="26" height="26" viewBox="-1 -1 26 26" id="view-dashboard" x="130" y="390" xmlns="http://www.w3.org/2000/svg"><path d="M12 4h8v6h-8V4m0 17V11h8v10h-8m-9 0v-6h8v6H3m0-7V4h8v10H3m1-9v8h6V5H4m9 0v4h6V5h-6m0 7v8h6v-8h-6m-9 4v4h6v-4H4z"/></svg><svg width="26" height="26" viewBox="-1 -1 26 26" id="view-module" x="156" y="390" xmlns="http://www.w3.org/2000/svg"><path d="M15 6h5v6h-5V6m-6 6V6h5v6H9m6 7v-6h5v6h-5m-6 0v-6h5v6H9m-6 0v-6h5v6H3m0-7V6h5v6H3m1-5v4h3V7H4m6 0v4h3V7h-3m6 0v4h3V7h-3M4 14v4h3v-4H4m6 0v4h3v-4h-3m6 0v4h3v-4h-3z"/></svg><svg width="26" height="26" viewBox="-1 -1 26 26" id="volume" x="182" y="390" xmlns="http://www.w3.org/2000/svg"><path d="M21 12.5c0 3.97-3.09 7.23-7 7.5v-1c3.36-.27 6-3.08 6-6.5S17.36 6.27 14 6V5c3.91.27 7 3.53 7 7.5m-3 0c0 2.32-1.75 4.22-4 4.47v-1.01c1.7-.24 3-1.7 3-3.46s-1.3-3.22-3-3.46V8.03c2.25.25 4 2.15 4 4.47m-3 0c0 .65-.42 1.21-1 1.41v-2.82c.58.2 1 .76 1 1.41M2 9h4l4-4h2v15h-2l-4-4H2V9m1 6h3.41l4 4H11V6h-.59l-4 4H3v5z"/></svg><svg width="26" height="26" viewBox="-1 -1 26 26" id="volume-minus" x="208" y="390" xmlns="http://www.w3.org/2000/svg"><path d="M2 9h4l4-4h2v15h-2l-4-4H2V9m1 6h3.41l4 4H11V6h-.59l-4 4H3v5m11-2v-1h7v1h-7z"/></svg><svg width="26" height="26" viewBox="-1 -1 26 26" id="volume-mute" x="234" y="390" xmlns="http://www.w3.org/2000/svg"><path d="M2 9h4l4-4h2v15h-2l-4-4H2V9m1 6h3.41l4 4H11V6h-.59l-4 4H3v5m10.96.33l2.83-2.83-2.83-2.83.71-.71 2.83 2.83 2.83-2.83.71.71-2.83 2.83 2.83 2.83-.71.71-2.83-2.83-2.83 2.83-.71-.71z"/></svg><svg width="26" height="26" viewBox="-1 -1 26 26" id="volume-off" x="260" y="390" xmlns="http://www.w3.org/2000/svg"><path d="M2.79 4.46l.71-.71L20.25 20.5l-.71.71-2.24-2.24c-.98.57-2.1.93-3.3 1.03v-1a6.8 6.8 0 0 0 2.57-.77l-1.51-1.51c-.34.13-.69.21-1.06.25v-1.01c.09-.01.17-.02.25-.04L12 13.66V20h-2l-4-4H2V9h4l.67-.67-3.88-3.87M21 12.5c0 2.03-.81 3.87-2.12 5.22l-.7-.72A6.426 6.426 0 0 0 20 12.5c0-3.42-2.64-6.23-6-6.5V5c3.91.27 7 3.53 7 7.5m-3 0c0 1.2-.47 2.29-1.24 3.1l-.7-.71c.58-.62.94-1.47.94-2.39 0-1.76-1.3-3.22-3-3.46V8.03c2.25.25 4 2.15 4 4.47m-3 0c0 .37-.14.71-.36 1l-.64-.66v-1.75c.58.2 1 .76 1 1.41M6.41 10H3v5h3.41l4 4H11v-6.34L7.38 9.04l-.97.96M10 5h2v5.84l-1-1V6h-.59L8.79 7.63l-.71-.71L10 5z"/></svg><svg width="26" height="26" viewBox="-1 -1 26 26" id="volume-plus" x="286" y="390" xmlns="http://www.w3.org/2000/svg"><path d="M2 9h4l4-4h2v15h-2l-4-4H2V9m1 6h3.41l4 4H11V6h-.59l-4 4H3v5m14 1v-3h-3v-1h3V9h1v3h3v1h-3v3h-1z"/></svg><svg width="26" height="26" viewBox="-1 -1 26 26" id="wifi" x="312" y="390" xmlns="http://www.w3.org/2000/svg"><path d="M11.5 20.5l-4.5-6c1.24-.94 2.81-1.5 4.5-1.5s3.26.56 4.5 1.5l-4.5 6m0-1.66l3.07-4.07a6.5 6.5 0 0 0-6.14 0l3.07 4.07M11.5 4c3.73 0 7.17 1.24 9.93 3.32l-.6.8C18.23 6.16 15 5 11.5 5S4.77 6.16 2.17 8.12l-.6-.8C4.33 5.24 7.77 4 11.5 4m0 6c2.37 0 4.56.79 6.32 2.11l-.6.8A9.458 9.458 0 0 0 11.5 11c-2.15 0-4.13.71-5.72 1.91l-.6-.8C6.94 10.79 9.13 10 11.5 10m0-3c3.05 0 5.86 1 8.12 2.72l-.62.78A12.45 12.45 0 0 0 11.5 8c-2.82 0-5.43.94-7.5 2.5l-.62-.78C5.64 8 8.45 7 11.5 7z"/></svg><svg width="26" height="26" viewBox="-1 -1 26 26" id="xml" x="338" y="390" xmlns="http://www.w3.org/2000/svg"><path d="M16.17 17.74l-.71-.7L20 12.5l-4.54-4.54.71-.7 5.24 5.24-5.24 5.24m-9.34 0L1.59 12.5l5.24-5.24.71.7L3 12.5l4.54 4.54-.71.7M12.73 5h1l-3.46 15h-1l3.46-15z"/></svg></svg>